<svg width="1000" height="1000" viewBox="0 0 1000 1000" fill="none" xmlns="http://www.w3.org/2000/svg">
<path fill-rule="evenodd" clip-rule="evenodd" d="M520.153 1.26722C607.161 11.0269 665.907 99.3751 734.12 167.375C817.172 250.168 942.07 302.304 954.2 433.961C966.678 569.393 867.162 673.52 789.613 769.687C712.323 865.532 628.932 981.748 520.153 972.212C414.193 962.923 366.268 812.403 286.119 725.55C194.136 625.872 28.9843 585.692 23.453 433.961C17.9279 282.404 164.054 201.559 263.848 114.624C341.086 47.3394 426.288 -9.26172 520.153 1.26722Z" fill="#1E4AB1"/>
<circle cx="922.5" cy="799.5" r="32.5" fill="#0B2376"/>
<path fill-rule="evenodd" clip-rule="evenodd" d="M564.885 28.5045C651.892 38.2642 710.639 126.612 778.851 194.612C861.903 277.405 986.802 329.541 998.932 461.198C1011.41 596.631 911.893 700.758 834.344 796.925C757.055 892.769 673.663 1008.99 564.885 999.449C458.924 990.161 410.999 839.64 330.851 752.787C238.868 653.109 73.7158 612.93 68.1844 461.198C62.6594 309.641 208.785 228.796 308.58 141.862C385.818 74.5767 471.019 17.9756 564.885 28.5045Z" fill="#60A5FA"/>
<ellipse cx="110.438" cy="257.296" rx="110.438" ry="115.272" fill="#B1D7FE"/>
<ellipse cx="190.587" cy="890.564" rx="30.2889" ry="31.6148" fill="#89BDFC"/>
</svg>
