<svg width="100" height="100" viewBox="0 0 100 100" fill="none" xmlns="http://www.w3.org/2000/svg">
<g clip-path="url(#clip0_99_37)">
<path fill-rule="evenodd" clip-rule="evenodd" d="M33.6033 21.0953H44.0201L58.9992 71.2791H49.9512L46.2254 56.9844H31.6266L27.8246 71.2793H19.8408L33.6035 23.4525L33.6033 21.0953ZM44.1723 49.609L39.0018 28.3945L33.6793 49.6086L44.1723 49.609ZM74.5107 33.984H66.2988V71.2793H74.5107V33.984ZM70.2988 19.4943C67.6385 19.4943 65.4818 21.6262 65.4818 24.2561C65.4818 26.8859 67.6385 29.018 70.2988 29.018C72.9592 29.018 75.116 26.8861 75.116 24.2563C75.116 21.6264 72.9594 19.4943 70.2988 19.4943ZM100 100H0V0H100V100Z" fill="#172554"/>
</g>
<defs>
<clipPath id="clip0_99_37">
<rect width="100" height="100" fill="white"/>
</clipPath>
</defs>
</svg>
