<svg width="100" height="100" viewBox="0 0 100 100" fill="none" xmlns="http://www.w3.org/2000/svg">
<path fill-rule="evenodd" clip-rule="evenodd" d="M20.7708 8.33337C15.0625 8.33337 10.8417 13.3292 11.0333 18.7417C11.2125 23.95 10.9792 30.6875 9.28333 36.1834C7.575 41.6917 4.7 45.1834 0 45.6334V50.6959C4.7 51.1417 7.57917 54.6334 9.27917 60.1459C10.9792 65.6417 11.2125 72.3792 11.0292 77.5834C10.8417 83 15.0625 87.9959 20.7708 87.9959H79.2375C84.9458 87.9959 89.1667 83 88.975 77.5834C88.7958 72.3792 89.0292 65.6417 90.725 60.1459C92.4292 54.6334 95.3 51.1459 100 50.6959V45.6334C95.3 45.1834 92.4292 41.6917 90.725 36.1834C89.0292 30.6834 88.7958 23.9459 88.975 18.7417C89.1667 13.325 84.9417 8.33337 79.2375 8.33337H20.7708ZM67.7917 57.3709C67.7917 64.8292 62.2292 69.35 53 69.35H37.2875C36.8377 69.35 36.4064 69.1714 36.0884 68.8533C35.7703 68.5353 35.5917 68.104 35.5917 67.6542V28.6709C35.5928 28.2218 35.7719 27.7916 36.0898 27.4744C36.4077 27.1573 36.8385 26.9792 37.2875 26.9792H52.9125C60.6083 26.9792 65.6625 31.1459 65.6625 37.55C65.6625 42.0417 62.2625 46.0625 57.9333 46.7709V47.0042C63.8292 47.65 67.7917 51.7334 67.7917 57.3709ZM51.2917 32.35H42.3333V45.0084H49.8792C55.7125 45.0084 58.9292 42.6584 58.9292 38.4584C58.9292 34.525 56.1625 32.35 51.2917 32.35ZM42.3333 50.0292V63.975H51.625C57.6958 63.975 60.9167 61.5375 60.9167 56.9584C60.9167 52.375 57.6083 50.0292 51.2333 50.0292H42.3333Z" fill="#1E3A8A"/>
</svg>
