<svg width="100" height="100" viewBox="0 0 100 100" fill="none" xmlns="http://www.w3.org/2000/svg">
<path d="M36.25 66.2501L20 50.0001L36.25 33.7501C36.636 33.3687 36.9424 32.9146 37.1516 32.4139C37.3608 31.9132 37.4685 31.376 37.4685 30.8334C37.4685 30.2908 37.3608 29.7536 37.1516 29.2529C36.9424 28.7523 36.636 28.2981 36.25 27.9167C35.8686 27.5307 35.4145 27.2243 34.9138 27.0151C34.4131 26.8059 33.8759 26.6982 33.3333 26.6982C32.7907 26.6982 32.2535 26.8059 31.7528 27.0151C31.2522 27.2243 30.798 27.5307 30.4166 27.9167L11.2916 47.0417C10.9054 47.4272 10.5989 47.8851 10.3898 48.3891C10.1807 48.8932 10.0731 49.4335 10.0731 49.9792C10.0731 50.5249 10.1807 51.0653 10.3898 51.5693C10.5989 52.0734 10.9054 52.5313 11.2916 52.9167L30.4166 72.0834C32.0416 73.7084 34.625 73.7084 36.25 72.0834C36.636 71.7021 36.9424 71.2479 37.1516 70.7472C37.3608 70.2465 37.4685 69.7093 37.4685 69.1667C37.4685 68.6241 37.3608 68.0869 37.1516 67.5863C36.9424 67.0856 36.636 66.6314 36.25 66.2501ZM63.75 66.2501L80 50.0001L63.75 33.7501C63.364 33.3687 63.0575 32.9146 62.8483 32.4139C62.6392 31.9132 62.5315 31.376 62.5315 30.8334C62.5315 30.2908 62.6392 29.7536 62.8483 29.2529C63.0575 28.7523 63.364 28.2981 63.75 27.9167C64.1313 27.5307 64.5855 27.2243 65.0862 27.0151C65.5868 26.8059 66.124 26.6982 66.6666 26.6982C67.2092 26.6982 67.7465 26.8059 68.2471 27.0151C68.7478 27.2243 69.202 27.5307 69.5833 27.9167L88.7083 47.0417C90.3333 48.6667 90.3333 51.2917 88.7083 52.9167L69.5833 72.0834C69.202 72.4694 68.7478 72.7759 68.2471 72.985C67.7465 73.1942 67.2092 73.3019 66.6666 73.3019C66.124 73.3019 65.5868 73.1942 65.0862 72.985C64.5855 72.7759 64.1313 72.4694 63.75 72.0834C63.364 71.7021 63.0575 71.2479 62.8483 70.7472C62.6392 70.2465 62.5315 69.7093 62.5315 69.1667C62.5315 68.6241 62.6392 68.0869 62.8483 67.5863C63.0575 67.0856 63.364 66.6314 63.75 66.2501Z" fill="white"/>
</svg>
