<svg width="100" height="100" viewBox="0 0 100 100" fill="none" xmlns="http://www.w3.org/2000/svg">
<path fill-rule="evenodd" clip-rule="evenodd" d="M46.42 24.5155C47.0263 23.7224 48.1262 22.5767 49.8958 22.5767C51.6655 22.5767 52.7654 23.7224 53.3717 24.5155C53.9533 25.2699 54.535 26.3169 55.1343 27.3921L55.5608 28.1606L55.7618 28.5131L56.1108 28.5942L56.9498 28.7845C58.1025 29.0454 59.2517 29.3027 60.133 29.6517C61.106 30.036 62.4244 30.7798 62.9356 32.419C63.4361 34.023 62.8051 35.3837 62.2552 36.2615C61.744 37.0723 60.9685 37.9747 60.1753 38.9018L59.6113 39.5646L59.3222 39.9065C59.3293 40.0334 59.3469 40.1815 59.3645 40.3824L59.4491 41.2637C59.569 42.5011 59.6853 43.6996 59.643 44.6585C59.6007 45.6667 59.361 47.1896 57.9932 48.2225C56.5831 49.2941 55.0321 49.0615 54.045 48.7759C53.1355 48.5186 52.0603 48.0215 50.9781 47.5245L50.1955 47.1614L49.8958 47.0239L49.5962 47.1649L48.8101 47.5245C47.7314 48.0215 46.6562 48.5186 45.7467 48.7759C44.7596 49.0579 43.2085 49.2941 41.7985 48.2225C40.4342 47.1896 40.191 45.6667 40.1487 44.662C40.1064 43.6996 40.2192 42.5011 40.3426 41.2602L40.4272 40.3789L40.473 39.9065C40.3762 39.7919 40.2786 39.678 40.1804 39.5646L39.6164 38.9018C38.8232 37.9747 38.0477 37.0687 37.5365 36.258C36.9866 35.3837 36.3556 34.023 36.8561 32.4155C37.3638 30.7833 38.6857 30.036 39.6587 29.6517C40.54 29.3027 41.6892 29.0454 42.8419 28.7845L43.6809 28.5942L44.0334 28.5131L44.2309 28.1606L44.6574 27.3921C45.2567 26.3169 45.8383 25.2699 46.42 24.5155ZM49.8958 28.8656C49.6914 29.2217 49.4622 29.6306 49.1943 30.1135L48.8489 30.734L48.7678 30.875C48.4928 31.3826 48.0345 32.2216 47.2696 32.8033C46.4905 33.3955 45.5493 33.6 45.0029 33.7198L44.8478 33.7515L44.178 33.9031C43.5575 34.0441 43.0534 34.1569 42.6269 34.2662C42.9054 34.6082 43.2685 35.0382 43.7408 35.5917L44.1991 36.1275L44.3049 36.2474C44.6856 36.688 45.299 37.3931 45.5845 38.3096C45.8665 39.2121 45.7678 40.1427 45.7079 40.7279L45.6903 40.8936L45.6198 41.6092C45.5655 42.1493 45.5161 42.6898 45.4717 43.2308C45.8419 43.0686 46.2578 42.8783 46.7549 42.6491L47.3859 42.3601L47.5269 42.2896C48.0345 42.0534 48.9123 41.6374 49.8958 41.6374C50.8794 41.6374 51.7571 42.0534 52.2648 42.2931L52.4058 42.3601L53.0368 42.6491C53.5303 42.8783 53.9533 43.0722 54.32 43.2308C54.2756 42.6898 54.2262 42.1493 54.1719 41.6092L54.1014 40.8936L54.0838 40.7279C54.0239 40.1392 53.9251 39.2121 54.2072 38.3096C54.4892 37.3931 55.1061 36.688 55.4868 36.2474L55.5926 36.1275L56.0508 35.5917C56.5232 35.0382 56.8863 34.6082 57.1648 34.2662C56.7383 34.1605 56.2341 34.0441 55.6137 33.9031L54.9439 33.7515L54.7888 33.7163C54.2424 33.6 53.3012 33.3955 52.5221 32.7997C51.7571 32.2216 51.2989 31.3826 51.0239 30.8785L50.9428 30.734L50.5974 30.1135C50.3294 29.6306 50.1038 29.2217 49.8958 28.8656Z" fill="white"/>
<path fill-rule="evenodd" clip-rule="evenodd" d="M34.0254 13.2593C39.2714 12.3994 44.5799 11.9784 49.8959 12.0009C56.3399 12.0009 61.6665 12.5684 65.7663 13.2593L66.2422 13.3404C69.8027 13.9362 72.7638 14.4332 75.0764 17.2816C76.5605 19.1112 77.0399 21.0888 77.1492 23.2921L78.8836 23.8702C80.5157 24.4131 81.9505 24.8925 83.0821 25.4213C84.3088 25.9924 85.4334 26.7256 86.2935 27.9206C87.1537 29.1122 87.4956 30.413 87.6507 31.7561C87.7917 33.0005 87.7917 34.5057 87.7917 36.2331V36.7407C87.7917 38.1578 87.7917 39.4093 87.686 40.4562C87.5732 41.5878 87.3229 42.6912 86.6989 43.7558C86.0679 44.824 85.2254 45.5784 84.2912 46.227C83.4276 46.8263 82.3347 47.4361 81.0939 48.1235L71.7873 53.295C69.8837 57.0352 67.2751 60.3701 63.6794 62.7778C60.5948 64.8471 56.904 66.1585 52.5398 66.5321V73.6918H57.5808C59.007 73.6918 60.3892 74.1861 61.4921 75.0904C62.595 75.9947 63.3505 77.2532 63.63 78.6518L64.4021 82.5048H71.0471C71.7483 82.5048 72.4208 82.7833 72.9166 83.2792C73.4124 83.775 73.691 84.4475 73.691 85.1487C73.691 85.8499 73.4124 86.5224 72.9166 87.0182C72.4208 87.514 71.7483 87.7926 71.0471 87.7926H28.7447C28.0435 87.7926 27.371 87.514 26.8752 87.0182C26.3793 86.5224 26.1008 85.8499 26.1008 85.1487C26.1008 84.4475 26.3793 83.775 26.8752 83.2792C27.371 82.7833 28.0435 82.5048 28.7447 82.5048H35.3897L36.1617 78.6518C36.4412 77.2532 37.1967 75.9947 38.2996 75.0904C39.4025 74.1861 40.7847 73.6918 42.2109 73.6918H47.252V66.5321C42.8878 66.1585 39.1969 64.8471 36.1124 62.7813C32.5202 60.3701 29.908 57.0352 28.0044 53.295L18.6979 48.1235C17.6028 47.5422 16.5358 46.9093 15.5005 46.227C14.5255 45.5935 13.7042 44.7505 13.0963 43.7594C12.5238 42.746 12.1853 41.6174 12.1058 40.4562C12 39.4093 12 38.1578 12 36.7407V36.2295C12 34.5092 12 33.0005 12.141 31.7561C12.2961 30.413 12.6345 29.1122 13.4982 27.9206C14.3584 26.7256 15.4829 25.9924 16.7061 25.4178C17.8448 24.889 19.276 24.4131 20.9082 23.8702L22.6426 23.2921C22.7519 21.0853 23.2313 19.1112 24.7154 17.2816C27.0314 14.4297 29.9891 13.9327 33.5531 13.3404L34.0254 13.2593ZM40.7832 82.5048H59.0085L58.4445 79.6882C58.4046 79.4885 58.2967 79.3087 58.1393 79.1796C57.9818 79.0504 57.7845 78.9797 57.5808 78.9796H42.2109C42.0073 78.9797 41.8099 79.0504 41.6525 79.1796C41.495 79.3087 41.3872 79.4885 41.3473 79.6882L40.7832 82.5048ZM22.7589 28.8266L22.7096 28.8442C20.9117 29.4435 19.7695 29.8313 18.9376 30.2155C18.1726 30.5681 17.9259 30.8184 17.7884 31.0122C17.6474 31.2026 17.4923 31.5163 17.3971 32.3553C17.2913 33.2648 17.2878 34.4705 17.2878 36.367V36.6244C17.2878 38.1931 17.2878 39.1766 17.3654 39.931C17.4359 40.6219 17.5487 40.9004 17.6544 41.0767C17.7566 41.2529 17.9435 41.4856 18.5146 41.884C19.135 42.314 19.9951 42.7934 21.37 43.5584L25.1243 45.6453C23.6155 40.1108 23.0092 34.1884 22.7624 28.8301M74.671 45.6453C76.1797 40.1108 76.7861 34.1884 77.0364 28.8301L77.0857 28.8478C78.8836 29.4471 80.0257 29.8348 80.8577 30.2191C81.6227 30.5716 81.8694 30.8219 82.0069 31.0158C82.1479 31.2061 82.303 31.5199 82.3982 32.3589C82.5039 33.2684 82.5075 34.474 82.5075 36.3705V36.6279C82.5075 38.1966 82.5075 39.1801 82.4299 39.9345C82.3594 40.6255 82.2466 40.9039 82.1409 41.0802C82.0386 41.2565 81.8518 41.4891 81.2807 41.8875C80.6567 42.3175 79.8001 42.797 78.4253 43.5619L74.671 45.6453ZM49.8959 17.2886C43.762 17.2886 38.7316 17.828 34.9067 18.4731C30.6518 19.1923 29.7599 19.4602 28.8222 20.6164C27.8986 21.7515 27.8105 22.8303 27.9973 27.6069C28.3146 35.5668 29.3651 44.1612 32.6154 50.6969C34.2228 53.919 36.3239 56.5558 39.0594 58.3889C41.7738 60.2115 45.2814 61.3536 49.8959 61.3536C54.5139 61.3536 58.0179 60.2115 60.7359 58.3889C63.4714 56.5558 65.5689 53.919 67.1729 50.6934C70.4266 44.1612 71.4771 35.5703 71.7909 27.6034C71.9848 22.8303 71.8966 21.7515 70.973 20.6164C70.0353 19.4602 69.1399 19.1923 64.885 18.4731C59.9302 17.6625 54.9165 17.2663 49.8959 17.2886Z" fill="white"/>
</svg>
