<svg width="100" height="100" viewBox="0 0 100 100" fill="none" xmlns="http://www.w3.org/2000/svg">
<g clip-path="url(#clip0_84_10)">
<path fill-rule="evenodd" clip-rule="evenodd" d="M49.9999 8.33337C73.0124 8.33337 91.6666 26.9875 91.6666 50C91.6666 73.0125 73.0124 91.6667 49.9999 91.6667C26.9874 91.6667 8.33325 73.0125 8.33325 50C8.33325 26.9875 26.9874 8.33337 49.9999 8.33337ZM56.7374 58.2667C46.1164 61.3937 36.831 67.9522 30.3333 76.9167C36.0376 81.0966 42.9281 83.3448 49.9999 83.3334C54.3264 83.3405 58.6124 82.5012 62.6166 80.8625C61.3059 73.1751 59.339 65.6141 56.7374 58.2625M64.9791 56.5834C67.1958 63.0125 68.9791 69.6459 70.2874 76.45C76.4005 71.7627 80.7024 65.1037 82.4624 57.6042C76.7387 56.2474 70.8218 55.902 64.9791 56.5834ZM51.4624 45.4625C40.3132 49.3941 28.4285 50.7947 16.6708 49.5625L16.6666 50C16.6666 58.0292 19.5083 65.3959 24.2374 71.15C31.6387 61.3278 41.9504 54.0912 53.7041 50.4709C52.9904 48.7894 52.243 47.1224 51.4624 45.4709M77.0333 30.5C71.6369 35.213 65.6267 39.1726 59.1666 42.2709C60.1416 44.3542 61.0708 46.4584 61.9499 48.5917C69.0333 47.5084 76.3249 47.7334 83.3249 49.2625C83.1858 42.5138 80.9909 35.9682 77.0333 30.5ZM35.7249 19.875C31.37 21.9448 27.5146 24.9324 24.4233 28.6328C21.3321 32.3333 19.0783 36.6588 17.8166 41.3125C27.8808 42.329 38.0461 41.1927 47.6374 37.9792C44.1483 31.641 40.1651 25.5875 35.7249 19.875ZM49.9999 16.6667C47.9999 16.6667 46.0416 16.8417 44.1458 17.1792C48.3174 22.784 52.0813 28.6811 55.4083 34.825C61.1668 32.0827 66.529 28.5761 71.3499 24.4C65.3634 19.393 57.8043 16.655 49.9999 16.6667Z" fill="white"/>
</g>
<defs>
<clipPath id="clip0_84_10">
<rect width="100" height="100" fill="white"/>
</clipPath>
</defs>
</svg>
