<svg width="100" height="100" viewBox="0 0 100 100" fill="none" xmlns="http://www.w3.org/2000/svg">
<path d="M82.9979 53.8966C83.0041 52.5413 82.7905 47.4279 82.6275 45.9655C80.7501 29.1815 67.106 17 50.1867 17C32.5639 17 18.2854 30.5574 17.3167 48.534C17.2961 48.9264 17.1517 51.7102 17.1414 53.3672L17.1362 54.289C17.0516 54.67 17 55.0635 17 55.4692V69.2861C17 72.3037 19.4582 74.7579 22.4806 74.7579H28.0436C31.066 74.7579 33.5252 72.3037 33.5252 69.2861V55.4703C33.5252 52.4527 31.0649 49.9985 28.0436 49.9985H22.4795C22.1074 49.9985 21.7362 50.0362 21.3717 50.1107C21.4026 49.4424 21.4305 48.915 21.4377 48.7554C22.2867 32.9992 34.792 21.1195 50.1866 21.1195C64.9685 21.1195 76.8859 31.7623 78.526 46.4238C78.5951 47.0355 78.6839 48.5906 78.755 50.1519C78.3558 50.0592 77.9442 49.9984 77.5172 49.9984H72.0191C68.9967 49.9984 66.5385 52.4526 66.5385 55.4702V69.2233C66.5385 71.3067 67.7248 73.1018 69.4455 74.0246L56.2006 79.2162V78.8805C56.2006 77.7435 55.2763 76.8207 54.1375 76.8207H47.9483C46.8094 76.8207 45.8852 77.7435 45.8852 78.8805V80.9402C45.8852 82.0772 46.8094 83 47.9483 83H54.1375C54.1551 83 54.1705 82.9949 54.1881 82.9949L57.8861 82.9804L79.1328 74.6528C79.4114 74.5374 79.6476 74.3655 79.8415 74.1595C81.7014 73.2831 83 71.4087 83 69.2233V55.4701C83 55.1344 82.9587 54.8079 82.8999 54.4896C82.9567 54.3001 82.9969 54.1034 82.9979 53.8964L82.9979 53.8966ZM22.4796 54.118H28.0428C28.7907 54.118 29.3982 54.7236 29.3982 55.4703V69.2872C29.3982 70.0338 28.7896 70.6394 28.0427 70.6394H22.4797C21.7318 70.6394 21.1253 70.0338 21.1253 69.2872V55.4703C21.1263 54.7236 21.7328 54.118 22.4796 54.118ZM70.6638 55.4703C70.6638 54.7236 71.2705 54.118 72.0183 54.118H77.5164C78.2642 54.118 78.8717 54.7236 78.8717 55.4703V69.2233C78.8717 69.97 78.2631 70.5756 77.5163 70.5756H72.0182C71.2703 70.5756 70.6638 69.97 70.6638 69.2233V55.4703Z" fill="white"/>
</svg>
