<svg width="100" height="100" viewBox="0 0 100 100" fill="none" xmlns="http://www.w3.org/2000/svg">
<path d="M78.041 22.5419L72.7077 26.7086L49.9993 43.5836L27.291 26.5419L21.9576 22.3752C20.7012 21.3358 19.1674 20.6879 17.5463 20.5117C15.9253 20.3355 14.2881 20.6388 12.8377 21.3839C11.3873 22.1291 10.1873 23.2834 9.38656 24.7039C8.58578 26.1243 8.21935 27.7485 8.33264 29.3752V77.6669C8.33264 79.1698 8.92967 80.6111 9.99237 81.6738C11.0551 82.7365 12.4964 83.3336 13.9993 83.3336H27.291V51.1669L49.9993 68.2086L72.7077 51.1669V83.3336H85.9993C87.5022 83.3336 88.9436 82.7365 90.0063 81.6738C91.069 80.6111 91.666 79.1698 91.666 77.6669V29.3752C91.7442 27.7626 91.3523 26.1619 90.5379 24.7678C89.7234 23.3737 88.5215 22.2463 87.0783 21.5224C85.6351 20.7986 84.0127 20.5096 82.4083 20.6906C80.8039 20.8716 79.2867 21.5148 78.041 22.5419Z" fill="white"/>
</svg>
