<svg width="8003" height="5964" viewBox="0 0 8003 5964" fill="none" xmlns="http://www.w3.org/2000/svg">
<path d="M0 5240.33H8002.95V5244.34H0V5240.33Z" fill="#E0E0E0"/>
<path d="M1958.16 5409.84H2508.77V5413.84H1958.16V5409.84Z" fill="#E0E0E0"/>
<path d="M6225.66 5411.76H6535.53V5415.76H6225.66V5411.76Z" fill="#E0E0E0"/>
<path d="M3985.47 5402.47H4613.54V5406.47H3985.47V5402.47Z" fill="#E0E0E0"/>
<path d="M4629.55 5345.49H4910.29V5349.49H4629.55V5345.49Z" fill="#E0E0E0"/>
<path d="M1207.49 5347.57H2055.64V5351.58H1207.49V5347.57Z" fill="#E0E0E0"/>
<path d="M4209.55 4526.47H7300.13C7324.35 4526.43 7347.55 4516.78 7364.66 4499.65C7381.76 4482.51 7391.37 4459.29 7391.37 4435.08V90.5934C7391.16 66.521 7381.46 43.5037 7364.37 26.5413C7347.29 9.57887 7324.21 0.0412374 7300.13 0H4209.55C4185.31 0 4162.07 9.62896 4144.93 26.7686C4127.79 43.9083 4118.16 67.1546 4118.16 91.3937V4435.08C4118.16 4459.32 4127.79 4482.56 4144.93 4499.7C4162.07 4516.84 4185.31 4526.47 4209.55 4526.47ZM7300.13 3.20119C7323.28 3.24359 7345.47 12.4696 7361.83 28.8543C7378.18 45.2389 7387.37 67.4433 7387.37 90.5934V4435.08C7387.37 4458.23 7378.18 4480.43 7361.83 4496.82C7345.47 4513.2 7323.28 4522.43 7300.13 4522.47H4209.55C4186.39 4522.43 4164.18 4513.21 4147.8 4496.83C4131.42 4480.45 4122.2 4458.24 4122.16 4435.08V90.5934C4122.2 67.4286 4131.42 45.2246 4147.8 28.8445C4164.18 12.4644 4186.39 3.2435 4209.55 3.20119H7300.13Z" fill="#E0E0E0"/>
<path d="M747.316 4526.47H3838.06C3862.28 4526.43 3885.5 4516.79 3902.63 4499.66C3919.77 4482.52 3929.41 4459.3 3929.45 4435.08V90.5934C3929.2 66.5064 3919.46 43.4893 3902.35 26.5313C3885.25 9.57327 3862.14 0.0407877 3838.06 0H747.316C723.27 0.0833027 700.226 9.63954 683.178 26.5975C666.131 43.5554 656.453 66.5486 656.242 90.5934V4435.08C656.242 4459.26 665.827 4482.46 682.898 4499.59C699.968 4516.72 723.132 4526.39 747.316 4526.47ZM3838.06 3.20119C3861.22 3.2435 3883.43 12.4644 3899.81 28.8445C3916.19 45.2246 3925.41 67.4286 3925.45 90.5934V4435.08C3925.41 4458.24 3916.19 4480.45 3899.81 4496.83C3883.43 4513.21 3861.22 4522.43 3838.06 4522.47H747.316C724.151 4522.43 701.947 4513.21 685.567 4496.83C669.187 4480.45 659.966 4458.24 659.924 4435.08V90.5934C659.966 67.4286 669.187 45.2246 685.567 28.8445C701.947 12.4644 724.151 3.2435 747.316 3.20119H3838.06Z" fill="#E0E0E0"/>
<path d="M971.398 3236.87C1168.27 2937.08 988.525 2614.89 1018.46 2281.32C1048.39 1947.76 1365.3 1875.09 1305.28 1593.07C1235.82 1265.27 1421 950.751 1630.84 950.751C1840.68 950.751 2025.71 1264.47 1956.24 1592.59C1896.22 1875.09 2212.34 1947.92 2243.07 2280.84C2273.8 2613.76 2093.25 2937.08 2290.28 3236.39C2487.32 3535.71 2435.46 3933.13 2324.54 4130.16C2295.03 4182.44 2259.47 4231.06 2218.58 4275.02C2143.4 4355.72 2052.42 4420.08 1951.29 4464.08C1850.16 4508.09 1741.05 4530.8 1630.76 4530.8C1520.47 4530.8 1411.36 4508.09 1310.23 4464.08C1209.1 4420.08 1118.12 4355.72 1042.94 4275.02C1002.16 4231.02 966.651 4182.4 937.145 4130.16C826.064 3933.61 774.366 3537.31 971.398 3236.87Z" fill="#E0E0E0"/>
<path d="M1630.84 3464.32C1617.77 3464.32 1604.82 3466.89 1592.74 3471.9C1580.66 3476.9 1569.69 3484.23 1560.44 3493.48C1551.2 3502.72 1543.87 3513.7 1538.86 3525.78C1533.86 3537.86 1531.29 3550.8 1531.29 3563.88V5240.33H1730.4V3563.88C1730.4 3550.8 1727.82 3537.86 1722.82 3525.78C1717.82 3513.7 1710.48 3502.72 1701.24 3493.48C1691.99 3484.23 1681.02 3476.9 1668.94 3471.9C1656.86 3466.89 1643.92 3464.32 1630.84 3464.32Z" fill="#F0F0F0"/>
<path d="M2882.5 5240.33H3153.16V3564.03C3153.08 3528.11 3138.77 3493.67 3113.36 3468.27C3087.96 3442.86 3053.52 3428.55 3017.59 3428.46C2981.66 3428.55 2947.23 3442.86 2921.82 3468.27C2896.42 3493.67 2882.11 3528.11 2882.02 3564.03L2882.5 5240.33Z" fill="#E0E0E0"/>
<path d="M3018.07 4788.17C2556.9 4788.17 2183.05 4414.31 2183.05 3953.14C2183.05 3491.97 2556.9 3118.11 3018.07 3118.11C3479.25 3118.11 3853.1 3491.97 3853.1 3953.14C3853.1 4414.31 3479.25 4788.17 3018.07 4788.17Z" fill="#F0F0F0"/>
<path d="M2036.85 3702.57C1993.04 3526.18 2100.51 3347.68 2276.9 3303.86C2453.28 3260.05 2631.79 3367.52 2675.61 3543.9C2719.42 3720.29 2611.95 3898.8 2435.56 3942.61C2259.18 3986.43 2080.67 3878.96 2036.85 3702.57Z" fill="#F0F0F0"/>
<path d="M3501.27 3459.67C3483.98 3353.48 3556.04 3253.39 3662.22 3236.1C3768.4 3218.8 3868.5 3290.86 3885.79 3397.04C3903.08 3503.23 3831.03 3603.32 3724.84 3620.61C3618.66 3637.91 3518.57 3565.85 3501.27 3459.67Z" fill="#F0F0F0"/>
<path d="M3481.6 3464.32C3406.11 3464.32 3344.91 3403.12 3344.91 3327.63C3344.91 3252.14 3406.11 3190.94 3481.6 3190.94C3557.1 3190.94 3618.3 3252.14 3618.3 3327.63C3618.3 3403.12 3557.1 3464.32 3481.6 3464.32Z" fill="#F0F0F0"/>
<path d="M4737.75 4239.8C4867.6 4259.14 4991.68 4306.49 5101.4 4378.58C5102.36 4251.81 5125.57 4131.6 5185.11 4034.45C5275.71 4122.64 5349.17 4236.92 5409.2 4359.85C5431.12 4129.52 5491.79 3905.44 5626.08 3763.47C5827.27 3890.08 5930.99 4101.03 5980.29 4324.48C6061.73 4173.81 6179.94 4046.19 6323.93 3953.46C6447.02 4083.11 6486.39 4262.37 6483.03 4446.12C6622.92 4283.18 6778.18 4156.09 6929.6 4141.21C6966.89 4398.74 6887.5 4641.71 6786.5 4833.78C6720.93 4957.02 6622.98 5060.02 6503.19 5131.69C6383.4 5203.36 6246.32 5240.98 6106.73 5240.49H5449.05C5168.79 5240.49 4905.97 5091 4774.56 4843.39C4691.49 4686.53 4651.8 4484.7 4737.75 4239.8Z" fill="#E0E0E0"/>
<path d="M4925.66 914.578C4844.51 676.57 4909.65 507.067 5107.65 507.067C5232.17 507.067 5386.63 573.812 5537.08 682.332C5554.05 620.389 5601.91 583.416 5678.9 583.416C5814.47 583.416 6001.25 698.018 6147.71 859.677C6188.94 820.502 6243.53 798.473 6300.41 798.055C6430.21 790.692 6587.23 856.636 6723.76 963.716C6730.6 954.141 6739.63 946.341 6750.1 940.967C6760.57 935.593 6772.18 932.801 6783.94 932.824C6858.69 928.663 6960.01 995.248 7010.11 1081.36C7013.15 1086.64 7015.87 1091.92 7018.75 1097.37H4886.28C4879.88 1022.14 4893.17 959.394 4925.66 914.578Z" fill="#F0F0F0"/>
<path d="M4919.1 2359.75C4879.4 2243.55 4910.93 2160.8 5007.93 2160.8C5068.91 2160.8 5144.3 2192.81 5217.77 2246.43C5221.72 2231.49 5230.87 2218.45 5243.57 2209.65C5256.28 2200.85 5271.7 2196.87 5287.07 2198.41C5353.18 2198.41 5444.41 2254.43 5516.12 2333.5C5536.22 2314.3 5562.91 2303.53 5590.7 2303.41C5654.73 2299.73 5730.76 2331.9 5797.5 2384.24C5800.74 2379.61 5805.02 2375.81 5809.99 2373.14C5814.97 2370.47 5820.5 2369.01 5826.15 2368.87C5862.64 2366.79 5912.1 2399.28 5936.59 2441.38L5940.91 2449.06H4899.25C4894.89 2417.87 4901.94 2386.16 4919.1 2359.75Z" fill="#F0F0F0"/>
<path d="M2516.61 1480.39C2524.83 1479.23 2533.12 1478.64 2541.42 1478.63C2533.74 1362.58 2578.07 1288.32 2672.99 1288.32C2741.33 1288.32 2825.36 1327.05 2910.83 1392.51C2886.34 1167.15 2964.77 1020.7 3142.44 1020.7C3285.53 1020.7 3466.88 1116.73 3645.99 1271.35C3661.99 1183 3714.49 1129.86 3803.16 1129.86C3958.9 1129.86 4180.26 1293.76 4357.77 1524.88C4378 1498.23 4403.94 1476.45 4433.68 1461.13C4463.43 1445.81 4496.23 1437.35 4529.67 1436.37C4677.89 1425.97 4862.11 1520.08 5025.85 1673.42C5031.81 1660.49 5041.29 1649.5 5053.21 1641.71C5065.13 1633.93 5079.01 1629.66 5093.24 1629.4C5174.39 1623.64 5285.31 1708.31 5351.09 1821.47H2386.16C2316.53 1649.89 2371.92 1499.75 2516.61 1480.39Z" fill="#F0F0F0"/>
<path d="M4001.48 5963.16C2287.52 5963.16 898.091 5882.04 898.091 5781.97C898.091 5681.91 2287.52 5600.79 4001.48 5600.79C5715.43 5600.79 7104.86 5681.91 7104.86 5781.97C7104.86 5882.04 5715.43 5963.16 4001.48 5963.16Z" fill="#F5F5F5"/>
<path d="M7220.91 1529.53L3572.04 2054.84L3082.42 2548.94L7220.91 1529.53Z" fill="#407BFF"/>
<path opacity="0.6" d="M7220.91 1529.53L3572.04 2054.84L3082.42 2548.94L7220.91 1529.53Z" fill="white"/>
<path d="M7220.91 1529.53L3572.04 2054.84L3741.38 2769.34L7220.91 1529.53Z" fill="#407BFF"/>
<path opacity="0.2" d="M7220.91 1529.53L3572.04 2054.84L3741.38 2769.34L7220.91 1529.53Z" fill="black"/>
<path d="M3816.29 702.339L3604.53 1694.71C3599.02 1720.62 3604.02 1747.66 3618.42 1769.89C3632.82 1792.13 3655.46 1807.74 3681.36 1813.31L5571.34 2216.66C5597.25 2222.12 5624.26 2217.11 5646.49 2202.71C5668.71 2188.32 5684.33 2165.71 5689.94 2139.83L5901.86 1147.46C5907.32 1121.53 5902.28 1094.49 5887.85 1072.26C5873.43 1050.04 5850.78 1034.43 5824.87 1028.86L3934.89 625.511C3908.96 620.05 3881.92 625.086 3859.69 639.514C3837.46 653.943 3821.86 676.59 3816.29 702.499V702.339Z" fill="#407BFF"/>
<path opacity="0.4" d="M3816.29 702.339L3604.53 1694.71C3599.02 1720.62 3604.02 1747.66 3618.42 1769.89C3632.82 1792.13 3655.46 1807.74 3681.36 1813.31L5571.34 2216.66C5597.25 2222.12 5624.26 2217.11 5646.49 2202.71C5668.71 2188.32 5684.33 2165.71 5689.94 2139.83L5901.86 1147.46C5907.32 1121.53 5902.28 1094.49 5887.85 1072.26C5873.43 1050.04 5850.78 1034.43 5824.87 1028.86L3934.89 625.511C3908.96 620.05 3881.92 625.086 3859.69 639.514C3837.46 653.943 3821.86 676.59 3816.29 702.499V702.339Z" fill="black"/>
<path d="M3862.87 637.355L4494.3 1412.52C4552.86 1484.39 4634.2 1534.11 4724.86 1553.47C4815.53 1572.82 4910.08 1560.65 4992.88 1518.96L5885.85 1069.19C5871.41 1048.44 5849.6 1033.96 5824.87 1028.7L3934.89 625.351C3910.23 620.102 3884.49 624.391 3862.87 637.355Z" fill="#407BFF"/>
<path d="M7220.91 1529.53L4211.31 2244.83L3741.38 2769.34L7220.91 1529.53Z" fill="#407BFF"/>
<path opacity="0.6" d="M7220.91 1529.53L4211.31 2244.83L3741.38 2769.34L7220.91 1529.53Z" fill="white"/>
<path d="M6123.08 2218.98L6131.17 2232.79L5796.25 2428.97L5788.16 2415.16L6123.08 2218.98Z" fill="#407BFF"/>
<path d="M5640.29 2501.65L5648.38 2515.46L5527.95 2586.01L5519.86 2572.2L5640.29 2501.65Z" fill="#407BFF"/>
<path d="M7220.91 1529.53L4211.31 2244.83L4796.33 2949.89L7220.91 1529.53Z" fill="#407BFF"/>
<path d="M3195.42 3205.34C3199.47 3205.35 3203.49 3204.59 3207.26 3203.1L3697.36 3009.11C3705.21 3005.95 3711.48 2999.82 3714.82 2992.05C3718.15 2984.29 3718.28 2975.52 3715.17 2967.65C3712.07 2959.79 3705.98 2953.48 3698.23 2950.09C3690.49 2946.7 3681.72 2946.51 3673.84 2949.57L3183.57 3143.56C3176.64 3146.3 3170.88 3151.38 3167.29 3157.91C3163.69 3164.45 3162.5 3172.03 3163.9 3179.36C3165.31 3186.68 3169.22 3193.29 3174.98 3198.03C3180.73 3202.78 3187.96 3205.36 3195.42 3205.34Z" fill="#407BFF"/>
<path opacity="0.3" d="M3195.42 3205.34C3199.47 3205.35 3203.49 3204.59 3207.26 3203.1L3697.36 3009.11C3705.21 3005.95 3711.48 2999.82 3714.82 2992.05C3718.15 2984.29 3718.28 2975.52 3715.17 2967.65C3712.07 2959.79 3705.98 2953.48 3698.23 2950.09C3690.49 2946.7 3681.72 2946.51 3673.84 2949.57L3183.57 3143.56C3176.64 3146.3 3170.88 3151.38 3167.29 3157.91C3163.69 3164.45 3162.5 3172.03 3163.9 3179.36C3165.31 3186.68 3169.22 3193.29 3174.98 3198.03C3180.73 3202.78 3187.96 3205.36 3195.42 3205.34Z" fill="black"/>
<path d="M3224.39 2924.28C3228.41 2924.25 3232.38 2923.44 3236.07 2921.88L3499.37 2817.04C3503.31 2815.51 3506.9 2813.23 3509.95 2810.3C3513 2807.38 3515.44 2803.89 3517.13 2800.02C3518.82 2796.15 3519.73 2791.99 3519.81 2787.77C3519.89 2783.55 3519.13 2779.35 3517.58 2775.43C3516.02 2771.5 3513.71 2767.92 3510.77 2764.89C3507.83 2761.86 3504.32 2759.45 3500.44 2757.78C3496.56 2756.11 3492.39 2755.23 3488.17 2755.18C3483.95 2755.13 3479.76 2755.92 3475.84 2757.5L3212.55 2861.86C3204.66 2864.96 3198.32 2871.07 3194.93 2878.84C3191.54 2886.62 3191.37 2895.42 3194.46 2903.31C3196.71 2909.44 3200.79 2914.74 3206.14 2918.49C3211.49 2922.23 3217.86 2924.26 3224.39 2924.28Z" fill="#407BFF"/>
<path opacity="0.5" d="M3224.39 2924.28C3228.41 2924.25 3232.38 2923.44 3236.07 2921.88L3499.37 2817.04C3503.31 2815.51 3506.9 2813.23 3509.95 2810.3C3513 2807.38 3515.44 2803.89 3517.13 2800.02C3518.82 2796.15 3519.73 2791.99 3519.81 2787.77C3519.89 2783.55 3519.13 2779.35 3517.58 2775.43C3516.02 2771.5 3513.71 2767.92 3510.77 2764.89C3507.83 2761.86 3504.32 2759.45 3500.44 2757.78C3496.56 2756.11 3492.39 2755.23 3488.17 2755.18C3483.95 2755.13 3479.76 2755.92 3475.84 2757.5L3212.55 2861.86C3204.66 2864.96 3198.32 2871.07 3194.93 2878.84C3191.54 2886.62 3191.37 2895.42 3194.46 2903.31C3196.71 2909.44 3200.79 2914.74 3206.14 2918.49C3211.49 2922.23 3217.86 2924.26 3224.39 2924.28Z" fill="white"/>
<path d="M3774.83 3201.18C3778.83 3201.14 3782.79 3200.38 3786.52 3198.94L4264.61 3009.11C4268.55 3007.59 4272.15 3005.3 4275.19 3002.38C4278.24 2999.45 4280.68 2995.96 4282.37 2992.09C4284.07 2988.22 4284.98 2984.06 4285.05 2979.84C4285.13 2975.62 4284.37 2971.42 4282.82 2967.5C4281.27 2963.57 4278.95 2959.99 4276.01 2956.96C4273.07 2953.93 4269.56 2951.52 4265.68 2949.85C4261.8 2948.18 4257.63 2947.3 4253.41 2947.25C4249.19 2947.2 4245 2947.99 4241.09 2949.57L3762.99 3138.76C3756.05 3141.5 3750.29 3146.58 3746.7 3153.11C3743.11 3159.65 3741.91 3167.23 3743.32 3174.56C3744.72 3181.88 3748.64 3188.49 3754.39 3193.23C3760.15 3197.97 3767.38 3200.56 3774.83 3200.54V3201.18Z" fill="#407BFF"/>
<path opacity="0.3" d="M3774.83 3201.18C3778.83 3201.14 3782.79 3200.38 3786.52 3198.94L4264.61 3009.11C4268.55 3007.59 4272.15 3005.3 4275.19 3002.38C4278.24 2999.45 4280.68 2995.96 4282.37 2992.09C4284.07 2988.22 4284.98 2984.06 4285.05 2979.84C4285.13 2975.62 4284.37 2971.42 4282.82 2967.5C4281.27 2963.57 4278.95 2959.99 4276.01 2956.96C4273.07 2953.93 4269.56 2951.52 4265.68 2949.85C4261.8 2948.18 4257.63 2947.3 4253.41 2947.25C4249.19 2947.2 4245 2947.99 4241.09 2949.57L3762.99 3138.76C3756.05 3141.5 3750.29 3146.58 3746.7 3153.11C3743.11 3159.65 3741.91 3167.23 3743.32 3174.56C3744.72 3181.88 3748.64 3188.49 3754.39 3193.23C3760.15 3197.97 3767.38 3200.56 3774.83 3200.54V3201.18Z" fill="black"/>
<path d="M2043.95 1757.77C2001.54 1840.52 1962.64 1923.43 1925.67 2008.26C1888.7 2093.09 1854.28 2179.04 1824.19 2269.16L1813.31 2303.25C1811.39 2309.33 1808.67 2319.26 1807.07 2326.3C1805.47 2333.34 1804.03 2341.34 1803.23 2348.07C1799.56 2373.89 1797.69 2399.94 1797.62 2426.02C1797.38 2474.12 1799.63 2522.2 1804.35 2570.07C1813.28 2662.74 1827.82 2754.78 1847.88 2845.69L1935.75 2835.93C1936.87 2745.81 1937.68 2654.74 1940.88 2565.91C1942.32 2521.73 1944.88 2477.39 1949.36 2435.78C1951.39 2416.24 1954.6 2396.83 1958.96 2377.68C1959.76 2373.2 1961.04 2369.84 1962 2366.15C1962.96 2362.47 1963.92 2361.19 1965.53 2356.39L1977.69 2326.14C2011.14 2245.15 2048.76 2163.52 2087.17 2082.21L2203.37 1838.28L2043.95 1757.77Z" fill="#E4897B"/>
<path d="M1934.47 2807.76L1975.45 2884.42L1844.52 2920.92C1844.52 2920.92 1819.55 2859.3 1849.32 2810.64L1934.47 2807.76Z" fill="#E4897B"/>
<path d="M2025.55 2994.86L1905.18 3004.47L1844.52 2920.92L1975.45 2884.42L2025.55 2994.86Z" fill="#E4897B"/>
<path d="M2595.04 1204.6C2596.8 1214.05 2603.36 1220.61 2609.44 1219.33C2615.53 1218.05 2618.89 1209.57 2616.97 1200.28C2615.05 1191 2608.64 1184.28 2602.56 1185.56C2596.48 1186.84 2592.96 1195.32 2595.04 1204.6Z" fill="#263238"/>
<path d="M2602.4 1220.61C2619.31 1246.8 2639.72 1270.55 2663.06 1291.2C2657.61 1297 2650.97 1301.54 2643.59 1304.53C2636.21 1307.51 2628.28 1308.86 2620.33 1308.48L2602.4 1220.61Z" fill="#DE5753"/>
<path d="M2550.54 1159.95C2552.05 1159.91 2553.49 1159.28 2554.54 1158.19C2559.14 1152.93 2564.91 1148.83 2571.39 1146.21C2577.87 1143.6 2584.88 1142.55 2591.84 1143.14C2593.16 1143.15 2594.45 1142.7 2595.47 1141.85C2596.49 1141 2597.18 1139.82 2597.41 1138.51C2597.64 1137.21 2597.4 1135.86 2596.73 1134.72C2596.06 1133.57 2595.01 1132.7 2593.76 1132.26C2584.86 1131.13 2575.82 1132.22 2567.44 1135.43C2559.06 1138.64 2551.61 1143.88 2545.74 1150.66C2544.71 1151.71 2544.14 1153.12 2544.14 1154.59C2544.14 1156.05 2544.71 1157.46 2545.74 1158.51C2546.38 1159.09 2547.14 1159.53 2547.98 1159.78C2548.81 1160.03 2549.68 1160.09 2550.54 1159.95Z" fill="#263238"/>
<path d="M2330.3 1335.37C2347.11 1421.48 2363.91 1578.98 2303.73 1636.44C2303.73 1636.44 2327.26 1723.68 2487.16 1723.68C2663.22 1723.68 2571.03 1636.44 2571.03 1636.44C2474.99 1613.56 2477.71 1542.33 2494.36 1475.58L2330.3 1335.37Z" fill="#E4897B"/>
<path d="M2279.56 1690.7C2266.92 1648.61 2252.99 1600.43 2281.8 1585.22C2313.81 1569.22 2487.8 1551.61 2547.82 1582.82C2607.84 1614.04 2590.72 1699.67 2590.72 1699.67L2279.56 1690.7Z" fill="#263238"/>
<path d="M1910.46 5682.1C1915.44 5682.76 1920.49 5682.42 1925.33 5681.1C1930.16 5679.78 1934.69 5677.51 1938.64 5674.41C1940.03 5672.48 1940.78 5670.16 1940.78 5667.77C1940.78 5665.39 1940.03 5663.06 1938.64 5661.13C1937.72 5659.47 1936.46 5658.03 1934.94 5656.9C1933.43 5655.76 1931.68 5654.97 1929.83 5654.57C1912.55 5650.73 1880.21 5672.81 1878.77 5673.77C1878.36 5674.12 1878.04 5674.57 1877.84 5675.07C1877.65 5675.57 1877.58 5676.12 1877.65 5676.66C1877.74 5677.17 1877.99 5677.65 1878.36 5678.02C1878.74 5678.4 1879.22 5678.65 1879.73 5678.74C1889.83 5680.92 1900.13 5682.04 1910.46 5682.1ZM1925.19 5659.69H1928.55C1929.64 5659.91 1930.66 5660.37 1931.54 5661.04C1932.43 5661.7 1933.16 5662.55 1933.67 5663.53C1936.23 5668.01 1934.63 5669.93 1933.67 5670.57C1928.71 5677.3 1904.7 5677.3 1887.1 5674.41C1898.57 5666.84 1911.58 5661.92 1925.19 5660.01V5659.69Z" fill="#407BFF"/>
<path d="M1880.37 5679.22H1881.65C1893.82 5672.49 1917.35 5647.2 1914.95 5633.76C1914.54 5631.68 1913.42 5629.81 1911.79 5628.47C1910.15 5627.13 1908.1 5626.39 1905.98 5626.4C1903.87 5626.17 1901.74 5626.36 1899.71 5626.97C1897.67 5627.57 1895.78 5628.58 1894.14 5629.92C1880.53 5641.12 1878.13 5675.05 1878.13 5676.5C1878.07 5677 1878.15 5677.52 1878.38 5677.97C1878.61 5678.43 1878.97 5678.81 1879.41 5679.06C1879.72 5679.18 1880.05 5679.23 1880.37 5679.22ZM1904.06 5631.2H1904.7C1908.38 5631.2 1908.7 5633.44 1908.86 5634.08C1910.31 5641.92 1895.26 5661.29 1883.25 5670.41C1884.06 5657.04 1888.86 5644.22 1897.02 5633.6C1898.1 5632.76 1899.33 5632.14 1900.65 5631.78C1901.97 5631.43 1903.35 5631.34 1904.7 5631.52L1904.06 5631.2Z" fill="#407BFF"/>
<path d="M2616.49 5682.1C2631.53 5682.1 2646.1 5680.02 2651.06 5673.29C2652.31 5671.51 2652.98 5669.39 2652.98 5667.21C2652.98 5665.03 2652.31 5662.91 2651.06 5661.13C2650.09 5659.49 2648.79 5658.06 2647.25 5656.93C2645.71 5655.8 2643.96 5655 2642.1 5654.57C2622.73 5649.29 2581.43 5672.65 2579.67 5673.61C2579.2 5673.92 2578.83 5674.35 2578.6 5674.86C2578.38 5675.38 2578.3 5675.94 2578.39 5676.5C2578.48 5677.06 2578.75 5677.57 2579.15 5677.98C2579.55 5678.38 2580.07 5678.64 2580.63 5678.74C2592.45 5680.96 2604.46 5682.09 2616.49 5682.1ZM2635.21 5659.37C2636.96 5659.11 2638.74 5659.11 2640.49 5659.37C2641.62 5659.59 2642.69 5660.05 2643.63 5660.71C2644.56 5661.37 2645.35 5662.22 2645.94 5663.21C2648.02 5666.73 2647.22 5668.33 2645.94 5669.29C2640.65 5676.66 2610.88 5677.14 2588.8 5674.09C2603.19 5666.33 2618.95 5661.43 2635.21 5659.69V5659.37Z" fill="#407BFF"/>
<path d="M2580.95 5679.22H2582.07C2596.32 5672.97 2624.33 5647.21 2622.25 5634.24C2622.25 5631.04 2619.53 5627.2 2611.84 5626.4C2608.99 5625.96 2606.07 5626.17 2603.3 5627C2600.53 5627.83 2597.98 5629.26 2595.84 5631.2C2580.79 5643.36 2577.75 5675.06 2577.59 5676.5C2577.53 5676.98 2577.6 5677.48 2577.8 5677.93C2577.99 5678.38 2578.31 5678.77 2578.71 5679.06C2579.05 5679.24 2579.43 5679.35 2579.81 5679.38C2580.2 5679.41 2580.59 5679.35 2580.95 5679.22ZM2609.6 5631.2H2611.36C2616.33 5631.2 2616.65 5633.76 2616.81 5634.4C2618.09 5642.4 2598.88 5662.41 2584.79 5671.05C2586.18 5657.61 2591.78 5644.95 2600.8 5634.88C2603.08 5632.9 2605.95 5631.72 2608.96 5631.52L2609.6 5631.2Z" fill="#407BFF"/>
<path d="M2451.63 5676.33H2569.27L2580.95 5404.07H2463.31L2451.63 5676.33Z" fill="#E4897B"/>
<path d="M1745.6 5676.33H1863.25L1922.31 5404.07H1804.83L1745.6 5676.33Z" fill="#E4897B"/>
<path d="M1871.57 5662.73H1739.52C1737.17 5662.75 1734.88 5663.56 1733.05 5665.05C1731.22 5666.53 1729.95 5668.59 1729.44 5670.89L1706.23 5775.41C1705.7 5777.96 1705.75 5780.59 1706.38 5783.11C1707.01 5785.63 1708.19 5787.98 1709.86 5789.98C1711.52 5791.98 1713.61 5793.58 1715.97 5794.66C1718.34 5795.74 1720.92 5796.27 1723.52 5796.22C1769.61 5795.42 1792.02 5792.7 1850.12 5792.7C1885.82 5792.7 1959.44 5796.54 2008.9 5796.54C2058.36 5796.54 2064.6 5748.52 2044.43 5743.24C1953.84 5723.39 1919.75 5696.02 1890.78 5670.09C1885.52 5665.33 1878.67 5662.71 1871.57 5662.73Z" fill="#263238"/>
<path d="M2568.47 5662.73H2440.42C2438.06 5662.75 2435.78 5663.56 2433.95 5665.05C2432.12 5666.53 2430.84 5668.59 2430.34 5670.89L2407.13 5775.41C2406.57 5777.93 2406.6 5780.55 2407.19 5783.06C2407.79 5785.57 2408.95 5787.92 2410.58 5789.92C2412.21 5791.92 2414.28 5793.53 2416.62 5794.62C2418.96 5795.71 2421.51 5796.26 2424.09 5796.22C2470.35 5795.42 2537.26 5792.7 2595.52 5792.7C2663.54 5792.7 2722.44 5796.54 2802.31 5796.54C2850.33 5796.54 2863.94 5748.52 2843.77 5743.24C2751.74 5723.07 2676.67 5720.99 2597.12 5672.01C2588.65 5666.25 2578.71 5663.03 2568.47 5662.73Z" fill="#263238"/>
<path d="M2624.97 1842.92C2723.29 1835.3 2821.13 1822.32 2918.04 1804.03C2966.05 1794.74 3015.03 1784.34 3063.69 1771.21C3113.56 1758.45 3162.54 1742.41 3210.3 1723.2C3222.63 1718.07 3235.11 1712.47 3247.44 1707.19C3261.31 1700.35 3274.68 1692.55 3287.45 1683.82C3310.5 1668.62 3330.35 1652.77 3350.04 1637.08C3389.25 1605.07 3425.58 1573.06 3462.08 1540.25C3533.62 1473.98 3601.49 1405.48 3666.95 1333.45L3608.05 1267.67L3375.81 1434.61C3337.55 1462.14 3298.82 1489.19 3260.72 1514.64C3241.84 1527.28 3222.47 1539.13 3204.7 1549.21C3197.27 1553.45 3189.57 1557.19 3181.65 1560.42C3172.21 1564.1 3162.61 1567.78 3152.52 1571.3C3066.02 1597.94 2977.55 1617.74 2887.95 1630.52C2796.55 1644.93 2702.12 1656.77 2610.88 1666.38L2624.97 1842.92Z" fill="#E4897B"/>
<path d="M2093.25 1663.01C1982.97 1688.3 1871.57 2010.5 1871.57 2010.5L2098.37 2173.28C2098.37 2173.28 2162.4 2023.15 2224.18 1891.9C2288.84 1754.41 2205.93 1637.24 2093.25 1663.01Z" fill="#407BFF"/>
<path opacity="0.4" d="M2093.25 1663.01C1982.97 1688.3 1871.57 2010.5 1871.57 2010.5L2098.37 2173.28C2098.37 2173.28 2162.4 2023.15 2224.18 1891.9C2288.84 1754.41 2205.93 1637.24 2093.25 1663.01Z" fill="black"/>
<path d="M2156.8 1839.08L2201.77 1939.76C2155.2 2040.27 2112.62 2139.83 2101.26 2166.4C2102.86 2047.48 2125.42 1899.9 2156.8 1839.08Z" fill="#407BFF"/>
<path opacity="0.6" d="M2156.8 1839.08L2201.77 1939.76C2155.2 2040.27 2112.62 2139.83 2101.26 2166.4C2102.86 2047.48 2125.42 1899.9 2156.8 1839.08Z" fill="black"/>
<path d="M2751.9 1669.1C2751.9 1669.1 2877.06 1810.43 2758.94 2685.47H2130.07C2125.58 2589.44 2186.25 2117.9 2093.25 1663.01C2162.77 1649.63 2233.07 1640.75 2303.73 1636.44C2392.76 1631.32 2482 1631.32 2571.03 1636.44C2632.08 1642.59 2692.55 1653.51 2751.9 1669.1Z" fill="#407BFF"/>
<path opacity="0.4" d="M2751.9 1669.1C2751.9 1669.1 2877.06 1810.43 2758.94 2685.47H2130.07C2125.58 2589.44 2186.25 2117.9 2093.25 1663.01C2162.77 1649.63 2233.07 1640.75 2303.73 1636.44C2392.76 1631.32 2482 1631.32 2571.03 1636.44C2632.08 1642.59 2692.55 1653.51 2751.9 1669.1Z" fill="black"/>
<path d="M2798.47 1839.08C2802.63 1872.21 2805.84 1911.42 2807.92 1957.68C2745.81 1939.04 2686.8 1911.32 2632.81 1875.41L2798.47 1839.08Z" fill="#407BFF"/>
<path opacity="0.6" d="M2798.47 1839.08C2802.63 1872.21 2805.84 1911.42 2807.92 1957.68C2745.81 1939.04 2686.8 1911.32 2632.81 1875.41L2798.47 1839.08Z" fill="black"/>
<path d="M2528.93 1856.69C2613.12 1931.27 2934.52 1923.75 2934.52 1923.75L2945.09 1612.6C2836.55 1628.06 2727.08 1635.97 2617.45 1636.28C2438.34 1632.6 2437.06 1774.42 2528.93 1856.69Z" fill="#407BFF"/>
<path opacity="0.4" d="M2528.93 1856.69C2613.12 1931.27 2934.52 1923.75 2934.52 1923.75L2945.09 1612.6C2836.55 1628.06 2727.08 1635.97 2617.45 1636.28C2438.34 1632.6 2437.06 1774.42 2528.93 1856.69Z" fill="black"/>
<path d="M3605.01 1268.31L3685.04 1174.03L3771.31 1270.07C3771.31 1270.07 3718.17 1359.38 3633.82 1345.3L3605.01 1268.31Z" fill="#E4897B"/>
<path d="M3799.64 1064.07L3830.69 1187.16L3771.95 1269.43L3685.68 1174.03L3799.64 1064.07Z" fill="#E4897B"/>
<path d="M2580.95 5404.23L2574.87 5544.45H2457.23L2463.31 5404.23H2580.95Z" fill="#CE6F64"/>
<path d="M1804.67 5404.23H1922.31L1891.9 5544.45H1774.25L1804.67 5404.23Z" fill="#CE6F64"/>
<path d="M2510.21 1088.4C2615.69 1040.38 2648.98 827.025 2345.51 880.325C2345.51 880.325 2391.28 930.904 2298.45 962.916C2205.61 994.927 2283.24 1192.6 2510.21 1088.4Z" fill="#263238"/>
<path d="M2281 1248.46C2311.25 1360.5 2323.1 1428.69 2393.04 1475.58C2497.72 1546.01 2627.85 1465.18 2632.01 1345.62C2635.69 1238.22 2585.59 1071.92 2464.75 1049.19C2438.08 1043.96 2410.51 1045.65 2384.67 1054.1C2358.84 1062.55 2335.6 1077.48 2317.17 1097.46C2298.75 1117.45 2285.75 1141.82 2279.42 1168.25C2273.08 1194.68 2273.63 1222.3 2281 1248.46Z" fill="#E4897B"/>
<path d="M2349.67 936.346C2277.8 976.361 2180.48 1000.37 2189.61 1057.35C2201.61 1126.98 2130.87 1083.44 2147.35 1187C2158.08 1254.7 2282.92 1459.9 2371.44 1449.98C2503.64 1433.97 2486.84 1232.94 2487.32 1126.98C2487.64 1064.39 2490.52 857.437 2349.67 936.346Z" fill="#263238"/>
<path d="M2503.16 1026.14C2535.18 1033.66 2577.59 1218.21 2453.55 1235.18C2310.93 1254.54 2503.16 1026.14 2503.16 1026.14Z" fill="#263238"/>
<path d="M2499.96 1091.6C2539.18 1095.12 2628.01 1047.91 2617.13 976.841C2617.13 976.361 2560.95 1059.91 2499.96 1091.6Z" fill="#263238"/>
<path d="M2441.7 1249.9C2453.74 1276.29 2474.17 1297.96 2499.8 1311.52C2533.57 1329.13 2552.62 1303.52 2544.94 1269.59C2538.06 1239.18 2512.13 1193.24 2477.39 1189.56C2442.66 1185.88 2427.78 1217.89 2441.7 1249.9Z" fill="#E4897B"/>
<path d="M2265.64 1120.41C2241.72 1110.03 2220.74 1093.88 2204.6 1073.41C2188.45 1052.93 2177.64 1028.77 2173.12 1003.09C2173.12 1003.09 2120.3 1149.86 2265.64 1120.41Z" fill="#263238"/>
<path d="M2132.15 1118.01C2143.28 1110.53 2156.1 1105.93 2169.45 1104.62C2182.81 1103.3 2196.27 1105.32 2208.66 1110.49C2208.66 1110.49 2159.36 1046.63 2132.15 1118.01Z" fill="#263238"/>
<path d="M2535.82 2685.47C2535.82 2685.47 2402.33 3584.04 2329.18 3920.65C2249.15 4288.78 1946.64 5517.4 1946.64 5517.4H1731.36C1731.36 5517.4 1930.63 4319.04 1976.41 3953.46C2026.03 3557.31 2130.07 2684.83 2130.07 2684.83L2535.82 2685.47Z" fill="#407BFF"/>
<path opacity="0.5" d="M2535.82 2685.47C2535.82 2685.47 2402.33 3584.04 2329.18 3920.65C2249.15 4288.78 1946.64 5517.4 1946.64 5517.4H1731.36C1731.36 5517.4 1930.63 4319.04 1976.41 3953.46C2026.03 3557.31 2130.07 2684.83 2130.07 2684.83L2535.82 2685.47Z" fill="white"/>
<path d="M1981.05 5438.01C1982.01 5438.01 1958.8 5520.76 1958.8 5520.76H1716.47L1720.95 5446.97L1981.05 5438.01Z" fill="#407BFF"/>
<path opacity="0.1" d="M1981.05 5438.01C1982.01 5438.01 1958.8 5520.76 1958.8 5520.76H1716.47L1720.95 5446.97L1981.05 5438.01Z" fill="black"/>
<path d="M2451.46 3005.59C2297.17 3035.84 2313.49 3611.25 2332.06 3907.2C2376.56 3698.01 2441.7 3295.46 2486.2 3009.75C2475.43 3004.45 2463.18 3002.98 2451.46 3005.59Z" fill="#407BFF"/>
<path opacity="0.4" d="M2451.46 3005.59C2297.17 3035.84 2313.49 3611.25 2332.06 3907.2C2376.56 3698.01 2441.7 3295.46 2486.2 3009.75C2475.43 3004.45 2463.18 3002.98 2451.46 3005.59Z" fill="white"/>
<path d="M2758.94 2685.47C2758.94 2685.47 2774.94 3564.51 2762.3 3923.21C2749.01 4296.14 2618.25 5517.4 2618.25 5517.4H2419.13C2419.13 5517.4 2411.77 4317.91 2403.13 3951.7C2393.36 3552.35 2345.19 2685.47 2345.19 2685.47H2758.94Z" fill="#407BFF"/>
<path opacity="0.5" d="M2758.94 2685.47C2758.94 2685.47 2774.94 3564.51 2762.3 3923.21C2749.01 4296.14 2618.25 5517.4 2618.25 5517.4H2419.13C2419.13 5517.4 2411.77 4317.91 2403.13 3951.7C2393.36 3552.35 2345.19 2685.47 2345.19 2685.47H2758.94Z" fill="white"/>
<path d="M2576.95 5374.3C2577.43 5374.31 2577.9 5374.13 2578.26 5373.8C2578.61 5373.47 2578.83 5373.02 2578.87 5372.54C2614.08 5034.5 2696.84 4216.6 2706.92 3923.21C2717.64 3623.74 2707.88 2951.81 2704.68 2753.02C2704.68 2752.51 2704.48 2752.02 2704.12 2751.66C2703.76 2751.3 2703.27 2751.1 2702.76 2751.1C2702.23 2751.09 2701.73 2751.29 2701.34 2751.65C2700.95 2752 2700.72 2752.49 2700.68 2753.02C2703.88 2951.81 2713.64 3623.74 2702.92 3923.05C2692.51 4216.44 2609.76 5034.02 2574.87 5372.06C2574.86 5372.61 2575.06 5373.13 2575.41 5373.54C2575.76 5373.96 2576.25 5374.23 2576.79 5374.3H2576.95Z" fill="#407BFF"/>
<path opacity="0.4" d="M2576.95 5374.3C2577.43 5374.31 2577.9 5374.13 2578.26 5373.8C2578.61 5373.47 2578.83 5373.02 2578.87 5372.54C2614.08 5034.5 2696.84 4216.6 2706.92 3923.21C2717.64 3623.74 2707.88 2951.81 2704.68 2753.02C2704.68 2752.51 2704.48 2752.02 2704.12 2751.66C2703.76 2751.3 2703.27 2751.1 2702.76 2751.1C2702.23 2751.09 2701.73 2751.29 2701.34 2751.65C2700.95 2752 2700.72 2752.49 2700.68 2753.02C2703.88 2951.81 2713.64 3623.74 2702.92 3923.05C2692.51 4216.44 2609.76 5034.02 2574.87 5372.06C2574.86 5372.61 2575.06 5373.13 2575.41 5373.54C2575.76 5373.96 2576.25 5374.23 2576.79 5374.3H2576.95Z" fill="white"/>
<path d="M2656.98 5438.01C2657.78 5438.01 2645.62 5520.76 2645.62 5520.76H2403.45L2396.88 5446.97L2656.98 5438.01Z" fill="#407BFF"/>
<path opacity="0.1" d="M2656.98 5438.01C2657.78 5438.01 2645.62 5520.76 2645.62 5520.76H2403.45L2396.88 5446.97L2656.98 5438.01Z" fill="black"/>
</svg>
