<svg width="100" height="100" viewBox="0 0 100 100" fill="none" xmlns="http://www.w3.org/2000/svg">
<path d="M78.0415 22.5417L72.7081 26.7083L49.9998 43.5833L27.2915 26.5417L21.9581 22.375C20.7017 21.3356 19.1679 20.6877 17.5468 20.5114C15.9257 20.3352 14.2886 20.6385 12.8382 21.3837C11.3878 22.1288 10.1878 23.2832 9.38705 24.7036C8.58627 26.1241 8.21983 27.7483 8.33313 29.375V77.6667C8.33313 79.1695 8.93015 80.6109 9.99286 81.6736C11.0556 82.7363 12.4969 83.3333 13.9998 83.3333H27.2915V51.1667L49.9998 68.2083L72.7081 51.1667V83.3333H85.9998C87.5027 83.3333 88.944 82.7363 90.0067 81.6736C91.0695 80.6109 91.6665 79.1695 91.6665 77.6667V29.375C91.7447 27.7623 91.3528 26.1617 90.5383 24.7676C89.7239 23.3735 88.522 22.246 87.0788 21.5222C85.6356 20.7984 84.0132 20.5094 82.4088 20.6904C80.8044 20.8714 79.2872 21.5145 78.0415 22.5417Z" fill="#60A5FA"/>
</svg>
