<svg width="100" height="100" viewBox="0 0 100 100" fill="none" xmlns="http://www.w3.org/2000/svg">
<path d="M37.5 62.5H50M37.5 62.5C35.0277 62.5 32.611 63.2331 30.5554 64.6066C28.4998 65.9801 26.8976 67.9324 25.9515 70.2165C25.0054 72.5005 24.7579 75.0139 25.2402 77.4386C25.7225 79.8634 26.913 82.0907 28.6612 83.8388C30.4093 85.587 32.6366 86.7775 35.0614 87.2598C37.4861 87.7421 39.9995 87.4946 42.2835 86.5485C44.5676 85.6024 46.5199 84.0002 47.8934 81.9446C49.2669 79.889 50 77.4723 50 75V62.5M37.5 62.5C34.1848 62.5 31.0054 61.183 28.6612 58.8388C26.317 56.4946 25 53.3152 25 50C25 46.6848 26.317 43.5054 28.6612 41.1612C31.0054 38.817 34.1848 37.5 37.5 37.5M50 62.5V50M37.5 37.5H50M37.5 37.5C34.1848 37.5 31.0054 36.183 28.6612 33.8388C26.317 31.4946 25 28.3152 25 25C25 21.6848 26.317 18.5054 28.6612 16.1612C31.0054 13.817 34.1848 12.5 37.5 12.5H50M50 50V37.5M50 50C50 52.4723 50.7331 54.889 52.1066 56.9446C53.4802 59.0002 55.4324 60.6024 57.7165 61.5485C60.0005 62.4946 62.5139 62.7421 64.9386 62.2598C67.3634 61.7775 69.5907 60.587 71.3388 58.8388C73.087 57.0907 74.2775 54.8634 74.7598 52.4386C75.2421 50.0139 74.9946 47.5005 74.0485 45.2165C73.1024 42.9324 71.5002 40.9801 69.4446 39.6066C67.389 38.2331 64.9723 37.5 62.5 37.5M50 50C50 46.6848 51.317 43.5054 53.6612 41.1612C56.0054 38.817 59.1848 37.5 62.5 37.5M50 37.5V12.5M50 37.5H62.5M50 12.5H62.5C65.8152 12.5 68.9946 13.817 71.3388 16.1612C73.683 18.5054 75 21.6848 75 25C75 28.3152 73.683 31.4946 71.3388 33.8388C68.9946 36.183 65.8152 37.5 62.5 37.5" stroke="#172554" stroke-width="5" stroke-linecap="round" stroke-linejoin="round"/>
</svg>
