<svg width="100" height="100" viewBox="0 0 100 100" fill="none" xmlns="http://www.w3.org/2000/svg">
<g clip-path="url(#clip0_91_2)">
<mask id="mask0_91_2" style="mask-type:luminance" maskUnits="userSpaceOnUse" x="0" y="0" width="100" height="100">
<path d="M0 0H100V100H0V0Z" fill="white"/>
</mask>
<g mask="url(#mask0_91_2)">
<path d="M21.1665 0H25.6748V4.45417H29.7998V0H34.3082V13.4833H29.7998V8.97083H25.6748V13.4833H21.1707L21.1665 0ZM40.2332 4.47083H36.2665V0H48.7123V4.47083H44.7415V13.4833H40.2332V4.47083ZM50.6873 0H55.3873L58.279 4.7375L61.1665 0H65.8665V13.4833H61.379V6.8L58.279 11.5958H58.1998L55.0957 6.80417V13.4833H50.6873V0ZM68.1082 0H72.6207V9.02917H78.954V13.4875H68.1082V0Z" fill="#1E3A8A"/>
<path fill-rule="evenodd" clip-rule="evenodd" d="M21.025 91.9667L12.5 19.6542H87.5L78.9708 91.9583L49.9583 100L21.025 91.9667ZM38.2625 52.3833L37.4542 43.3H71.3917L72.1833 34.4333H27.7667L30.1583 61.2542H60.8958L59.8667 72.7542L49.975 75.4292H49.9667L40.0917 72.7625L39.4583 65.6917H30.55L31.7917 79.6167L49.9583 84.6583L68.1542 79.6167L70.3708 54.7667L70.5875 52.3875L38.2625 52.3833Z" fill="#1E3A8A"/>
</g>
</g>
<defs>
<clipPath id="clip0_91_2">
<rect width="100" height="100" fill="white"/>
</clipPath>
</defs>
</svg>
