<svg width="100" height="100" viewBox="0 0 100 100" fill="none" xmlns="http://www.w3.org/2000/svg">
<path d="M32.5002 8.33334H67.5002C80.8335 8.33334 91.6668 19.1667 91.6668 32.5V67.5C91.6668 73.9094 89.1207 80.0563 84.5886 84.5884C80.0565 89.1206 73.9096 91.6667 67.5002 91.6667H32.5002C19.1668 91.6667 8.3335 80.8334 8.3335 67.5V32.5C8.3335 26.0906 10.8796 19.9437 15.4117 15.4116C19.9439 10.8795 26.0908 8.33334 32.5002 8.33334ZM31.6668 16.6667C27.6886 16.6667 23.8733 18.247 21.0602 21.0601C18.2472 23.8731 16.6668 27.6884 16.6668 31.6667V68.3333C16.6668 76.625 23.3752 83.3334 31.6668 83.3334H68.3335C72.3117 83.3334 76.1271 81.753 78.9401 78.94C81.7532 76.1269 83.3335 72.3116 83.3335 68.3333V31.6667C83.3335 23.375 76.6252 16.6667 68.3335 16.6667H31.6668ZM71.8752 22.9167C73.2565 22.9167 74.5813 23.4654 75.558 24.4422C76.5348 25.4189 77.0835 26.7437 77.0835 28.125C77.0835 29.5063 76.5348 30.8311 75.558 31.8079C74.5813 32.7846 73.2565 33.3333 71.8752 33.3333C70.4938 33.3333 69.1691 32.7846 68.1923 31.8079C67.2156 30.8311 66.6668 29.5063 66.6668 28.125C66.6668 26.7437 67.2156 25.4189 68.1923 24.4422C69.1691 23.4654 70.4938 22.9167 71.8752 22.9167ZM50.0002 29.1667C55.5255 29.1667 60.8246 31.3616 64.7316 35.2686C68.6386 39.1756 70.8335 44.4747 70.8335 50C70.8335 55.5254 68.6386 60.8244 64.7316 64.7314C60.8246 68.6384 55.5255 70.8333 50.0002 70.8333C44.4748 70.8333 39.1758 68.6384 35.2688 64.7314C31.3618 60.8244 29.1668 55.5254 29.1668 50C29.1668 44.4747 31.3618 39.1756 35.2688 35.2686C39.1758 31.3616 44.4748 29.1667 50.0002 29.1667ZM50.0002 37.5C46.685 37.5 43.5055 38.817 41.1613 41.1612C38.8171 43.5054 37.5002 46.6848 37.5002 50C37.5002 53.3152 38.8171 56.4946 41.1613 58.8389C43.5055 61.1831 46.685 62.5 50.0002 62.5C53.3154 62.5 56.4948 61.1831 58.839 58.8389C61.1832 56.4946 62.5002 53.3152 62.5002 50C62.5002 46.6848 61.1832 43.5054 58.839 41.1612C56.4948 38.817 53.3154 37.5 50.0002 37.5Z" fill="#3B82F6"/>
</svg>
