<svg width="100" height="100" viewBox="0 0 100 100" fill="none" xmlns="http://www.w3.org/2000/svg">
<path d="M32.5007 8.3335H67.5007C80.834 8.3335 91.6673 19.1668 91.6673 32.5002V67.5002C91.6673 73.9096 89.1212 80.0565 84.5891 84.5886C80.0569 89.1207 73.9101 91.6668 67.5007 91.6668H32.5007C19.1673 91.6668 8.33398 80.8335 8.33398 67.5002V32.5002C8.33398 26.0908 10.8801 19.9439 15.4122 15.4117C19.9444 10.8796 26.0913 8.3335 32.5007 8.3335ZM31.6673 16.6668C27.6891 16.6668 23.8738 18.2472 21.0607 21.0602C18.2477 23.8733 16.6673 27.6886 16.6673 31.6668V68.3335C16.6673 76.6252 23.3757 83.3335 31.6673 83.3335H68.334C72.3122 83.3335 76.1275 81.7532 78.9406 78.9401C81.7536 76.1271 83.334 72.3117 83.334 68.3335V31.6668C83.334 23.3752 76.6257 16.6668 68.334 16.6668H31.6673ZM71.8757 22.9168C73.257 22.9168 74.5818 23.4656 75.5585 24.4423C76.5353 25.4191 77.084 26.7438 77.084 28.1252C77.084 29.5065 76.5353 30.8313 75.5585 31.808C74.5818 32.7848 73.257 33.3335 71.8757 33.3335C70.4943 33.3335 69.1696 32.7848 68.1928 31.808C67.2161 30.8313 66.6673 29.5065 66.6673 28.1252C66.6673 26.7438 67.2161 25.4191 68.1928 24.4423C69.1696 23.4656 70.4943 22.9168 71.8757 22.9168ZM50.0007 29.1668C55.526 29.1668 60.825 31.3618 64.732 35.2688C68.6391 39.1758 70.834 44.4748 70.834 50.0002C70.834 55.5255 68.6391 60.8246 64.732 64.7316C60.825 68.6386 55.526 70.8335 50.0007 70.8335C44.4753 70.8335 39.1763 68.6386 35.2693 64.7316C31.3623 60.8246 29.1673 55.5255 29.1673 50.0002C29.1673 44.4748 31.3623 39.1758 35.2693 35.2688C39.1763 31.3618 44.4753 29.1668 50.0007 29.1668ZM50.0007 37.5002C46.6854 37.5002 43.506 38.8171 41.1618 41.1613C38.8176 43.5055 37.5007 46.685 37.5007 50.0002C37.5007 53.3154 38.8176 56.4948 41.1618 58.839C43.506 61.1832 46.6854 62.5002 50.0007 62.5002C53.3159 62.5002 56.4953 61.1832 58.8395 58.839C61.1837 56.4948 62.5007 53.3154 62.5007 50.0002C62.5007 46.685 61.1837 43.5055 58.8395 41.1613C56.4953 38.8171 53.3159 37.5002 50.0007 37.5002Z" fill="white"/>
</svg>
