<svg width="100" height="100" viewBox="0 0 100 100" fill="none" xmlns="http://www.w3.org/2000/svg">
<path d="M5 5H95V95H5V5ZM87.625 73.535C86.97 69.43 84.295 65.98 76.365 62.76C73.605 61.465 70.54 60.57 69.62 58.49C69.28 57.25 69.23 56.58 69.45 55.845C70.015 53.425 72.885 52.7 75.135 53.37C76.6 53.82 77.95 54.945 78.795 56.75C82.67 54.215 82.67 54.215 85.375 52.53C84.36 50.96 83.855 50.275 83.18 49.6C80.815 46.96 77.665 45.61 72.55 45.725L69.91 46.06C67.375 46.68 64.955 48.035 63.495 49.83C59.22 54.67 60.455 63.105 65.63 66.6C70.745 70.425 78.235 71.265 79.19 74.865C80.09 79.255 75.93 80.66 71.815 80.155C68.78 79.475 67.09 77.96 65.235 75.145L58.375 79.085C59.16 80.88 60.06 81.67 61.41 83.245C67.935 89.825 84.25 89.49 87.175 79.475C87.28 79.14 88.075 76.835 87.455 73.29L87.625 73.535ZM53.94 46.365H45.51C45.51 53.63 45.475 60.855 45.475 68.135C45.475 72.755 45.71 76.995 44.955 78.3C43.72 80.885 40.525 80.555 39.08 80.095C37.595 79.365 36.84 78.35 35.965 76.89C35.73 76.5 35.555 76.16 35.49 76.16L28.65 80.38C29.795 82.745 31.465 84.775 33.62 86.065C36.825 87.98 41.13 88.6 45.64 87.59C48.58 86.74 51.115 84.995 52.43 82.295C54.35 78.81 53.94 74.53 53.925 69.75C53.965 62.045 53.925 54.335 53.925 46.575L53.94 46.365Z" fill="#172554"/>
</svg>
