<svg width="100" height="100" viewBox="0 0 100 100" fill="none" xmlns="http://www.w3.org/2000/svg">
<path d="M28.9167 20.8331C28.9156 23.0432 28.0365 25.1624 26.4729 26.7244C24.9094 28.2865 22.7893 29.1634 20.5792 29.1623C18.369 29.1612 16.2499 28.2821 14.6878 26.7185C13.1258 25.155 12.2489 23.0349 12.25 20.8248C12.2511 18.6146 13.1301 16.4955 14.6937 14.9334C16.2573 13.3714 18.3774 12.4945 20.5875 12.4956C22.7976 12.4967 24.9168 13.3757 26.4788 14.9393C28.0409 16.5029 28.9178 18.623 28.9167 20.8331ZM29.1667 35.3331H12.5V87.4998H29.1667V35.3331ZM55.5 35.3331H38.9167V87.4998H55.3333V60.1248C55.3333 44.8748 75.2083 43.4581 75.2083 60.1248V87.4998H91.6667V54.4581C91.6667 28.7498 62.25 29.7081 55.3333 42.3331L55.5 35.3331Z" fill="white"/>
</svg>
