<svg width="100" height="100" viewBox="0 0 100 100" fill="none" xmlns="http://www.w3.org/2000/svg">
<path d="M85.2916 8.33335H14.7083C13.9148 8.32233 13.127 8.46771 12.3898 8.7612C11.6525 9.05468 10.9803 9.49052 10.4116 10.0438C9.8428 10.5971 9.38859 11.257 9.07488 11.9859C8.76118 12.7147 8.59412 13.4983 8.58325 14.2917V85.7083C8.59412 86.5018 8.76118 87.2853 9.07488 88.0141C9.38859 88.743 9.8428 89.4029 10.4116 89.9562C10.9803 90.5095 11.6525 90.9453 12.3898 91.2388C13.127 91.5323 13.9148 91.6777 14.7083 91.6667H85.2916C86.085 91.6777 86.8728 91.5323 87.6101 91.2388C88.3473 90.9453 89.0195 90.5095 89.5883 89.9562C90.157 89.4029 90.6112 88.743 90.925 88.0141C91.2387 87.2853 91.4057 86.5018 91.4166 85.7083V14.2917C91.4057 13.4983 91.2387 12.7147 90.925 11.9859C90.6112 11.257 90.157 10.5971 89.5883 10.0438C89.0195 9.49052 88.3473 9.05468 87.6101 8.7612C86.8728 8.46771 86.085 8.32233 85.2916 8.33335ZM33.7083 78.0833H21.2083V40.5833H33.7083V78.0833ZM27.4583 35.3333C25.7343 35.3333 24.081 34.6485 22.8621 33.4295C21.6431 32.2106 20.9583 30.5573 20.9583 28.8333C20.9583 27.1094 21.6431 25.4561 22.8621 24.2372C24.081 23.0182 25.7343 22.3333 27.4583 22.3333C28.3737 22.2295 29.3007 22.3202 30.1786 22.5995C31.0565 22.8788 31.8655 23.3404 32.5527 23.954C33.2398 24.5677 33.7896 25.3195 34.166 26.1604C34.5425 27.0012 34.7371 27.9121 34.7371 28.8333C34.7371 29.7546 34.5425 30.6655 34.166 31.5063C33.7896 32.3472 33.2398 33.099 32.5527 33.7127C31.8655 34.3263 31.0565 34.7879 30.1786 35.0672C29.3007 35.3465 28.3737 35.4372 27.4583 35.3333ZM78.7916 78.0833H66.2916V57.9583C66.2916 52.9167 64.4999 49.625 59.9582 49.625C58.5527 49.6353 57.184 50.0762 56.0367 50.8882C54.8894 51.7003 54.0186 52.8445 53.5416 54.1667C53.2155 55.146 53.0742 56.1774 53.1249 57.2083V78.0417H40.6249V40.5417H53.1249V45.8333C54.2605 43.863 55.912 42.2397 57.9018 41.1384C59.8915 40.037 62.1439 39.4994 64.4166 39.5833C72.7499 39.5833 78.7916 44.9583 78.7916 56.5V78.0833Z" fill="white"/>
</svg>
