<svg width="100" height="100" viewBox="0 0 100 100" fill="none" xmlns="http://www.w3.org/2000/svg">
<path d="M28.9167 20.8333C28.9156 23.0435 28.0365 25.1626 26.4729 26.7247C24.9094 28.2867 22.7893 29.1636 20.5792 29.1625C18.369 29.1614 16.2499 28.2823 14.6878 26.7188C13.1258 25.1552 12.2489 23.0351 12.25 20.825C12.2511 18.6148 13.1301 16.4957 14.6937 14.9337C16.2573 13.3716 18.3774 12.4947 20.5875 12.4958C22.7976 12.4969 24.9168 13.376 26.4788 14.9395C28.0409 16.5031 28.9178 18.6232 28.9167 20.8333ZM29.1667 35.3333H12.5V87.5H29.1667V35.3333ZM55.5 35.3333H38.9167V87.5H55.3333V60.125C55.3333 44.875 75.2083 43.4583 75.2083 60.125V87.5H91.6667V54.4583C91.6667 28.75 62.25 29.7083 55.3333 42.3333L55.5 35.3333Z" fill="#3B82F6"/>
</svg>
