<svg width="100" height="100" viewBox="0 0 100 100" fill="none" xmlns="http://www.w3.org/2000/svg">
<g clip-path="url(#clip0_91_23)">
<path d="M98.5081 22.625C98.5468 22.7605 98.5664 22.9008 98.5664 23.0417V44.4959C98.5664 45.0584 98.2623 45.5792 97.7789 45.8542L79.7664 56.2292V76.7875C79.7659 77.0626 79.6933 77.3328 79.5558 77.5711C79.4184 77.8094 79.2209 78.0076 78.9831 78.1459L41.3748 99.7875C41.2876 99.8353 41.1954 99.873 41.0998 99.9C41.0664 99.9084 41.0331 99.9334 40.9998 99.9417C40.7384 100.017 40.4612 100.017 40.1998 99.9417C40.1539 99.9334 40.1164 99.9084 40.0748 99.8917C39.9914 99.8584 39.8998 99.8334 39.8164 99.7875L2.22061 78.1459C1.98144 78.0087 1.78268 77.811 1.64441 77.5725C1.50614 77.334 1.43325 77.0632 1.43311 76.7875V12.3917C1.43311 12.2542 1.45394 12.1167 1.49144 11.9834C1.50394 11.9334 1.53311 11.9 1.54977 11.85C1.57484 11.7669 1.6069 11.6861 1.64561 11.6084C1.66227 11.5542 1.70811 11.5167 1.74144 11.4709L1.87894 11.2834C1.92894 11.2417 1.98311 11.2084 2.03311 11.1709C2.09144 11.1209 2.14561 11.0709 2.20394 11.0292L21.0123 0.208359C21.2498 0.0712207 21.5192 -0.000976563 21.7935 -0.000976562C22.0678 -0.000976562 22.3372 0.0712207 22.5748 0.208359L41.3748 11.0292H41.3831C41.4456 11.0709 41.4956 11.1167 41.5498 11.1667L41.7081 11.2792C41.7623 11.3375 41.7914 11.4042 41.8456 11.4667C41.8789 11.5125 41.9289 11.5542 41.9498 11.6042C41.9914 11.6875 42.0206 11.7625 42.0498 11.8459C42.0623 11.8917 42.0914 11.9334 42.1039 11.9792C42.1456 12.1084 42.1623 12.2459 42.1623 12.3875V52.6042L57.8289 43.5875V23.0292C57.8289 22.8917 57.8456 22.7542 57.8831 22.6209C57.8956 22.5792 57.9248 22.5375 57.9373 22.4875C57.9652 22.4035 57.9986 22.3214 58.0373 22.2417C58.0664 22.1917 58.1123 22.1584 58.1414 22.1042C58.1914 22.0417 58.2289 21.9792 58.2789 21.925C58.3289 21.875 58.3831 21.8417 58.4331 21.8084C58.4914 21.7667 58.5414 21.7125 58.6039 21.675H58.6081L77.4123 10.85C77.6498 10.7129 77.9192 10.6407 78.1935 10.6407C78.4678 10.6407 78.7372 10.7129 78.9748 10.85L97.7789 21.675C97.8456 21.7167 97.8914 21.7625 97.9539 21.8042C98.0039 21.8459 98.0581 21.8792 98.1039 21.9209C98.1581 21.9792 98.1956 22.0459 98.2456 22.1042C98.2789 22.1542 98.3248 22.1917 98.3456 22.2417C98.3878 22.3212 98.4214 22.405 98.4456 22.4917C98.4706 22.5334 98.4956 22.5792 98.5081 22.625ZM95.4248 43.5917V25.7459L88.8498 29.5292L79.7581 34.7625V52.6084L95.4248 43.5917ZM76.6331 75.8834V58.0209L67.6873 63.125L42.1623 77.7V95.7209L76.6331 75.8834ZM4.55394 15.1V75.8834L39.0248 95.7209V77.7L21.0164 67.5125L21.0081 67.5H20.9998C20.9414 67.4584 20.8956 67.4125 20.8331 67.3709C20.7873 67.3292 20.7331 67.2959 20.6873 67.2584L20.6831 67.25C20.6289 67.2 20.5956 67.1459 20.5539 67.0834C20.5123 67.0375 20.4664 66.9917 20.4373 66.9334H20.4289C20.3956 66.875 20.3748 66.8042 20.3456 66.7375C20.3206 66.6709 20.2873 66.625 20.2706 66.5584C20.2548 66.4799 20.2437 66.4006 20.2373 66.3209C20.2289 66.2625 20.2123 66.2084 20.2123 66.15V24.1209L11.1289 18.8834L4.55394 15.1ZM21.7914 3.37503L6.12477 12.3917L21.7914 21.4084L37.4498 12.3917L21.7914 3.37503ZM29.9414 59.6459L39.0331 54.4125V15.1L32.4498 18.8917L23.3581 24.1209V63.4334L29.9414 59.6459ZM78.1956 14.0209L62.5289 23.0334L78.1956 32.0459L93.8581 23.0292L78.1956 14.0209ZM76.6289 34.7625L67.5414 29.5292L60.9581 25.75V43.5959L70.0498 48.8292L76.6331 52.6125L76.6289 34.7625ZM40.5873 74.9875L63.5623 61.8709L75.0456 55.3209L59.3914 46.3084L41.3789 56.6792L24.9581 66.1375L40.5873 74.9875Z" fill="#1E3A8A"/>
</g>
<defs>
<clipPath id="clip0_91_23">
<rect width="100" height="100" fill="white"/>
</clipPath>
</defs>
</svg>
