<svg width="100" height="100" viewBox="0 0 100 100" fill="none" xmlns="http://www.w3.org/2000/svg">
<path d="M24 41.3333H41.4545V47.1667H24V41.3333ZM24 18H58.9091V23.8333H24V18ZM24 29.6667H58.9091V35.5H24V29.6667ZM24 70.5H41.4545V76.3333H24V70.5ZM88 70.5V64.6667H81.888C81.5128 62.8409 80.7898 61.1049 79.7585 59.5538L84.0931 55.2079L79.9796 51.0838L75.6451 55.4296C74.098 54.3957 72.3665 53.6707 70.5455 53.2946V47.1667H64.7273V53.2946C62.9062 53.6707 61.1747 54.3957 59.6276 55.4296L55.2931 51.0838L51.1796 55.2079L55.5142 59.5538C54.4829 61.1049 53.7599 62.8409 53.3847 64.6667H47.2727V70.5H53.3847C53.7599 72.3258 54.4829 74.0618 55.5142 75.6129L51.1796 79.9588L55.2931 84.0829L59.6276 79.7371C61.1747 80.771 62.9062 81.4959 64.7273 81.8721V88H70.5455V81.8721C72.3665 81.4959 74.098 80.771 75.6451 79.7371L79.9796 84.0829L84.0931 79.9588L79.7585 75.6129C80.7898 74.0618 81.5128 72.3258 81.888 70.5H88ZM67.6364 76.3333C65.9103 76.3333 64.2229 75.8202 62.7878 74.8587C61.3526 73.8972 60.234 72.5307 59.5734 70.9318C58.9129 69.333 58.74 67.5736 59.0768 65.8763C59.4135 64.179 60.2447 62.6199 61.4652 61.3961C62.6858 60.1724 64.2408 59.3391 65.9338 59.0015C67.6267 58.6638 69.3814 58.8371 70.9761 59.4994C72.5708 60.1617 73.9339 61.2832 74.8928 62.7221C75.8518 64.161 76.3636 65.8527 76.3636 67.5833C76.3613 69.9033 75.4411 72.1275 73.8049 73.768C72.1687 75.4084 69.9503 76.331 67.6364 76.3333Z" fill="white"/>
<path d="M42 88H18.8C17.2622 87.9985 15.7879 87.3809 14.7005 86.2828C13.6131 85.1847 13.0015 83.6958 13 82.1429V11.8571C13.0015 10.3042 13.6131 8.81532 14.7005 7.71723C15.7879 6.61914 17.2622 6.00155 18.8 6H65.2C66.7378 6.00155 68.2121 6.61914 69.2995 7.71723C70.3869 8.81532 70.9985 10.3042 71 11.8571V41.1429H65.2V11.8571H18.8V82.1429H42V88Z" fill="white"/>
</svg>
