<svg width="100" height="100" viewBox="0 0 100 100" fill="none" xmlns="http://www.w3.org/2000/svg">
<path d="M37.5125 25.0002C37.5125 21.6883 38.8281 18.5121 41.17 16.1702C43.5119 13.8283 46.6881 12.5127 50 12.5127C53.3119 12.5127 56.4881 13.8283 58.83 16.1702C61.1719 18.5121 62.4875 21.6883 62.4875 25.0002C62.4875 28.3121 61.1719 31.4883 58.83 33.8302C56.4881 36.1721 53.3119 37.4877 50 37.4877C46.6881 37.4877 43.5119 36.1721 41.17 33.8302C38.8281 31.4883 37.5125 28.3121 37.5125 25.0002ZM50 18.7627C49.1809 18.7627 48.3698 18.924 47.613 19.2375C46.8562 19.551 46.1686 20.0104 45.5894 20.5896C45.0102 21.1688 44.5508 21.8564 44.2373 22.6132C43.9238 23.37 43.7625 24.1811 43.7625 25.0002C43.7625 25.8193 43.9238 26.6304 44.2373 27.3872C44.5508 28.144 45.0102 28.8316 45.5894 29.4108C46.1686 29.99 46.8562 30.4494 47.613 30.7629C48.3698 31.0764 49.1809 31.2377 50 31.2377C51.6543 31.2377 53.2408 30.5805 54.4106 29.4108C55.5803 28.241 56.2375 26.6545 56.2375 25.0002C56.2375 23.3459 55.5803 21.7594 54.4106 20.5896C53.2408 19.4199 51.6543 18.7627 50 18.7627ZM68.75 28.1252C68.75 26.8941 68.9925 25.675 69.4636 24.5375C69.9348 23.4001 70.6253 22.3666 71.4959 21.4961C72.3664 20.6255 73.3999 19.935 74.5373 19.4638C75.6748 18.9927 76.8939 18.7502 78.125 18.7502C79.3561 18.7502 80.5752 18.9927 81.7127 19.4638C82.8501 19.935 83.8836 20.6255 84.7541 21.4961C85.6247 22.3666 86.3152 23.4001 86.7864 24.5375C87.2575 25.675 87.5 26.8941 87.5 28.1252C87.5 30.6116 86.5123 32.9962 84.7541 34.7543C82.996 36.5125 80.6114 37.5002 78.125 37.5002C75.6386 37.5002 73.254 36.5125 71.4959 34.7543C69.7377 32.9962 68.75 30.6116 68.75 28.1252ZM78.125 25.0002C77.2962 25.0002 76.5013 25.3294 75.9153 25.9155C75.3292 26.5015 75 27.2964 75 28.1252C75 28.954 75.3292 29.7489 75.9153 30.3349C76.5013 30.921 77.2962 31.2502 78.125 31.2502C78.9538 31.2502 79.7487 30.921 80.3347 30.3349C80.9208 29.7489 81.25 28.954 81.25 28.1252C81.25 27.2964 80.9208 26.5015 80.3347 25.9155C79.7487 25.3294 78.9538 25.0002 78.125 25.0002ZM21.875 18.7502C19.3886 18.7502 17.004 19.7379 15.2459 21.4961C13.4877 23.2542 12.5 25.6388 12.5 28.1252C12.5 30.6116 13.4877 32.9962 15.2459 34.7543C17.004 36.5125 19.3886 37.5002 21.875 37.5002C24.3614 37.5002 26.746 36.5125 28.5041 34.7543C30.2623 32.9962 31.25 30.6116 31.25 28.1252C31.25 25.6388 30.2623 23.2542 28.5041 21.4961C26.746 19.7379 24.3614 18.7502 21.875 18.7502ZM18.75 28.1252C18.75 27.2964 19.0792 26.5015 19.6653 25.9155C20.2513 25.3294 21.0462 25.0002 21.875 25.0002C22.7038 25.0002 23.4987 25.3294 24.0847 25.9155C24.6708 26.5015 25 27.2964 25 28.1252C25 28.954 24.6708 29.7489 24.0847 30.3349C23.4987 30.921 22.7038 31.2502 21.875 31.2502C21.0462 31.2502 20.2513 30.921 19.6653 30.3349C19.0792 29.7489 18.75 28.954 18.75 28.1252ZM26.675 43.7502C25.575 45.6493 24.9971 47.8056 25 50.0002H12.5V65.6252C12.4995 67.1798 12.8856 68.7101 13.6235 70.0784C14.3615 71.4467 15.4281 72.61 16.7274 73.4636C18.0267 74.3172 19.5179 74.8343 21.0667 74.9683C22.6155 75.1024 24.1734 74.8491 25.6 74.2314C26.0625 76.3002 26.7875 78.2752 27.725 80.1189C25.3529 81.0767 22.7819 81.4374 20.2379 81.1694C17.6938 80.9014 15.2544 80.0128 13.134 78.5817C11.0136 77.1506 9.277 75.2208 8.07671 72.9617C6.87641 70.7026 6.24915 68.1834 6.25 65.6252V50.0002C6.25 48.3426 6.90848 46.7529 8.08058 45.5808C9.25269 44.4087 10.8424 43.7502 12.5 43.7502H26.675ZM72.275 80.1189C74.6471 81.0767 77.2181 81.4374 79.7621 81.1694C82.3062 80.9014 84.7456 80.0128 86.866 78.5817C88.9864 77.1506 90.723 75.2208 91.9233 72.9617C93.1236 70.7026 93.7509 68.1834 93.75 65.6252V50.0002C93.75 48.3426 93.0915 46.7529 91.9194 45.5808C90.7473 44.4087 89.1576 43.7502 87.5 43.7502H73.325C74.3875 45.5877 75 47.7189 75 50.0002H87.5V65.6252C87.5005 67.1798 87.1144 68.7101 86.3765 70.0784C85.6385 71.4467 84.5719 72.61 83.2726 73.4636C81.9733 74.3172 80.4821 74.8343 78.9333 74.9683C77.3845 75.1024 75.8266 74.8491 74.4 74.2314C73.9313 76.3002 73.2125 78.2752 72.275 80.1189ZM37.5 43.7439C35.8424 43.7439 34.2527 44.4024 33.0806 45.5745C31.9085 46.7466 31.25 48.3363 31.25 49.9939V68.7502C31.25 73.723 33.2254 78.4921 36.7417 82.0085C40.2581 85.5248 45.0272 87.5002 50 87.5002C54.9728 87.5002 59.7419 85.5248 63.2583 82.0085C66.7746 78.4921 68.75 73.723 68.75 68.7502V50.0002C68.75 48.3426 68.0915 46.7529 66.9194 45.5808C65.7473 44.4087 64.1576 43.7502 62.5 43.7502L37.5 43.7439ZM37.5 49.9939H62.5V68.7502C62.5 72.0654 61.183 75.2448 58.8388 77.589C56.4946 79.9332 53.3152 81.2502 50 81.2502C46.6848 81.2502 43.5054 79.9332 41.1612 77.589C38.817 75.2448 37.5 72.0654 37.5 68.7502V49.9939Z" fill="white"/>
</svg>
