<svg width="100" height="100" viewBox="0 0 100 100" fill="none" xmlns="http://www.w3.org/2000/svg">
<path d="M87 54.8755V69.5003H72.4V64.6254H78.2172C77.178 63.0512 75.8092 61.8451 74.1109 61.0073C72.4127 60.1694 70.6257 59.7504 68.75 59.7504C67.3813 59.7504 66.0378 59.979 64.7198 60.436C63.4017 60.893 62.2358 61.5532 61.2219 62.4164C60.208 63.2797 59.3842 64.308 58.7505 65.5013C58.1168 66.6947 57.8 68.0277 57.8 69.5003H52.9333C52.9333 67.3421 53.3642 65.3744 54.226 63.5971C55.0878 61.8198 56.2665 60.2709 57.762 58.9507C59.2575 57.6304 60.9431 56.6274 62.8188 55.9419C64.6944 55.2564 66.6715 54.9009 68.75 54.8755C70.0681 54.8755 71.3608 55.0152 72.6281 55.2945C73.8955 55.5738 75.1122 56.0181 76.2781 56.6274C77.4441 57.2368 78.5214 57.9477 79.5099 58.7602C80.4984 59.5727 81.3729 60.5502 82.1333 61.6928V54.8755H87ZM71.1833 84.1251C72.5521 84.1251 73.8828 83.8966 75.1755 83.4395C76.4682 82.9825 77.6342 82.3224 78.6734 81.4591C79.7127 80.5958 80.5491 79.5675 81.1828 78.3742C81.8165 77.1808 82.1333 75.8479 82.1333 74.3752H87C87 76.5334 86.5691 78.5011 85.7073 80.2785C84.8455 82.0558 83.6668 83.6046 82.1714 84.9249C80.6759 86.2452 78.9903 87.2481 77.1146 87.9336C75.2389 88.6191 73.2618 88.9746 71.1833 89C69.8653 89 68.5726 88.8604 67.3052 88.5811C66.0378 88.3018 64.8212 87.8574 63.6552 87.2481C62.4892 86.6387 61.412 85.9278 60.4234 85.1153C59.4349 84.3028 58.5604 83.3253 57.8 82.1827V89H52.9333V74.3752H67.5333V79.2501H61.7161C62.7554 80.8243 64.1241 82.0304 65.8224 82.8683C67.5207 83.7061 69.3076 84.1251 71.1833 84.1251ZM62.6667 40.2507C60.6642 40.2507 58.7759 40.6316 57.0016 41.3933C55.2273 42.155 53.6811 43.196 52.363 44.5163C51.045 45.8366 50.0057 47.3854 49.2453 49.1627C48.4849 50.94 48.092 52.8316 48.0667 54.8374C48.0667 57.1987 47.547 59.4077 46.5078 61.4643C45.4686 63.5209 43.9858 65.2601 42.0594 66.682C43.2 67.266 44.2773 67.9515 45.2911 68.7386C46.305 69.5257 47.2302 70.4017 48.0667 71.3665L44.1885 74.3752C42.8198 72.8264 41.2102 71.6331 39.3599 70.7952C37.5095 69.9573 35.5451 69.5257 33.4667 69.5003C31.4389 69.5003 29.5505 69.8812 27.8016 70.6429C26.0526 71.4046 24.5064 72.4456 23.163 73.7659C21.8196 75.0861 20.7677 76.6476 20.0073 78.4504C19.2469 80.2531 18.8667 82.1446 18.8667 84.1251H14C14 82.2716 14.2535 80.4816 14.7604 78.755C15.2674 77.0285 15.9898 75.3908 16.9276 73.842C17.8655 72.2932 19.0061 70.9222 20.3495 69.7288C21.6929 68.5355 23.1884 67.5072 24.8359 66.6439C22.9602 65.2728 21.5028 63.559 20.4635 61.5024C19.4243 59.4458 18.892 57.2368 18.8667 54.8755C18.8667 52.8697 19.2469 50.9781 20.0073 49.2008C20.7677 47.4235 21.8069 45.8747 23.125 44.5544C24.4431 43.2341 25.9892 42.1804 27.7635 41.3933C29.5378 40.6062 31.4389 40.2254 33.4667 40.2507C35.7986 40.2507 37.9911 40.7712 40.0443 41.8122C42.0974 42.8532 43.821 44.3259 45.2151 46.2301C46.1783 44.3259 47.4076 42.6247 48.9031 41.1267C50.3986 39.6287 52.1095 38.3846 54.0359 37.3943C52.1602 36.0233 50.7028 34.3094 49.6635 32.2528C48.6243 30.1962 48.092 27.9873 48.0667 25.626C48.0667 23.6201 48.4469 21.7286 49.2073 19.9512C49.9677 18.1739 51.0069 16.6251 52.325 15.3048C53.6431 13.9845 55.1892 12.9308 56.9635 12.1438C58.7378 11.3567 60.6389 10.9758 62.6667 11.0012C64.6691 11.0012 66.5575 11.382 68.3318 12.1438C70.1061 12.9055 71.6523 13.9465 72.9703 15.2668C74.2884 16.587 75.3403 18.1485 76.126 19.9512C76.9118 21.754 77.292 23.6455 77.2667 25.626C77.2667 27.9619 76.7471 30.1581 75.7078 32.2147C74.6686 34.2713 73.1984 35.9979 71.2974 37.3943C73.8321 38.6639 75.974 40.3904 77.7229 42.574C79.4719 44.7575 80.7139 47.2331 81.449 50.0006H76.3542C75.8472 48.5534 75.1375 47.2331 74.225 46.0397C73.3125 44.8464 72.2606 43.8181 71.0693 42.9548C69.878 42.0915 68.5726 41.4314 67.1531 40.9744C65.7337 40.5173 64.2382 40.2761 62.6667 40.2507ZM62.6667 15.8761C61.3233 15.8761 60.0686 16.13 58.9026 16.6378C57.7366 17.1456 56.6974 17.8439 55.7849 18.7325C54.8724 19.6212 54.1753 20.6495 53.6938 21.8174C53.2122 22.9854 52.9587 24.2549 52.9333 25.626C52.9333 26.9716 53.1868 28.2285 53.6938 29.3964C54.2007 30.5644 54.8977 31.6054 55.7849 32.5194C56.672 33.4335 57.6986 34.1317 58.8646 34.6141C60.0306 35.0965 61.2979 35.3504 62.6667 35.3758C64.0101 35.3758 65.2648 35.1219 66.4307 34.6141C67.5967 34.1063 68.6359 33.4081 69.5484 32.5194C70.4609 31.6308 71.158 30.6025 71.6396 29.4345C72.1212 28.2666 72.3747 26.997 72.4 25.626C72.4 24.2803 72.1465 23.0235 71.6396 21.8555C71.1326 20.6876 70.4356 19.6466 69.5484 18.7325C68.6613 17.8185 67.6347 17.1202 66.4688 16.6378C65.3028 16.1554 64.0354 15.9015 62.6667 15.8761ZM33.4667 64.6254C34.8101 64.6254 36.0648 64.3715 37.2307 63.8637C38.3967 63.3559 39.4359 62.6576 40.3484 61.769C41.2609 60.8803 41.958 59.852 42.4396 58.6841C42.9212 57.5161 43.1747 56.2466 43.2 54.8755C43.2 53.5298 42.9465 52.2603 42.4396 51.067C41.9326 49.8736 41.2483 48.8453 40.3865 47.9821C39.5247 47.1188 38.4854 46.4206 37.2688 45.8874C36.0521 45.3542 34.7847 45.1003 33.4667 45.1257C32.1233 45.1257 30.8686 45.3796 29.7026 45.8874C28.5366 46.3952 27.4974 47.0934 26.5849 47.9821C25.6724 48.8707 24.9753 49.899 24.4938 51.067C24.0122 52.2349 23.7587 53.5044 23.7333 54.8755C23.7333 56.2212 23.9868 57.478 24.4938 58.646C25.0007 59.8139 25.6977 60.8549 26.5849 61.769C27.472 62.683 28.4986 63.3813 29.6646 63.8637C30.8306 64.3461 32.0979 64.6 33.4667 64.6254Z" fill="white"/>
</svg>
