<svg width="100" height="100" viewBox="0 0 100 100" fill="none" xmlns="http://www.w3.org/2000/svg">
<path d="M96.6668 50.5599C96.6668 61.6066 75.7735 70.5599 50.0002 70.5599C24.2268 70.5599 3.3335 61.6066 3.3335 50.5599C3.3335 39.5133 24.2268 30.5599 50.0002 30.5599C75.7735 30.5599 96.6668 39.5133 96.6668 50.5599Z" stroke="#1E3A8A" stroke-width="5"/>
<path d="M27.7736 91.5933C37.4869 96.8599 55.3069 82.7466 67.5869 60.0866C79.8602 37.4199 81.9403 14.7866 72.2269 9.52662C62.5136 4.25995 44.6936 18.3733 32.4136 41.0333C20.1403 63.6999 18.0602 86.3333 27.7736 91.5933Z" stroke="#1E3A8A" stroke-width="5"/>
<path d="M72.2269 91.5933C62.5136 96.8599 44.6936 82.7466 32.4136 60.0866C20.1403 37.4199 18.0602 14.7866 27.7736 9.52662C37.4869 4.25995 55.3069 18.3733 67.5869 41.0333C79.8602 63.6999 81.9403 86.3333 72.2269 91.5933Z" stroke="#1E3A8A" stroke-width="5"/>
<path d="M43.3335 50.56C43.3335 52.3281 44.0359 54.0238 45.2861 55.274C46.5364 56.5243 48.2321 57.2266 50.0002 57.2266C51.7683 57.2266 53.464 56.5243 54.7142 55.274C55.9644 54.0238 56.6668 52.3281 56.6668 50.56C56.6668 48.7919 55.9644 47.0962 54.7142 45.8459C53.464 44.5957 51.7683 43.8933 50.0002 43.8933C48.2321 43.8933 46.5364 44.5957 45.2861 45.8459C44.0359 47.0962 43.3335 48.7919 43.3335 50.56Z" stroke="#1E3A8A" stroke-width="5"/>
</svg>
