<svg width="100" height="100" viewBox="0 0 100 100" fill="none" xmlns="http://www.w3.org/2000/svg">
<path d="M25 39.974C28.3324 26.6068 36.6676 19.9219 50 19.9219C70 19.9219 72.5 34.9609 82.5 37.4674C89.1676 39.1393 95 36.6328 100 29.9479C96.6676 43.315 88.3324 50 75 50C55 50 52.5 34.9609 42.5 32.4545C35.8324 30.7826 30 33.2891 25 39.974ZM0 70.0521C3.33242 56.685 11.6676 50 25 50C45 50 47.5 65.0391 57.5 67.5455C64.1676 69.2174 70 66.7109 75 60.026C71.6676 73.3932 63.3324 80.0781 50 80.0781C30 80.0781 27.5 65.0391 17.5 62.5326C10.8324 60.8607 5 63.3672 0 70.0521Z" fill="#1E3A8A"/>
</svg>
