<svg width="100" height="100" viewBox="0 0 100 100" fill="none" xmlns="http://www.w3.org/2000/svg">
<path d="M20.4375 17C16.8737 17 13.4558 18.4706 10.9358 21.0883C8.41573 23.706 7 27.2564 7 30.9583V70.0417C7 73.7436 8.41573 77.294 10.9358 79.9117C13.4558 82.5294 16.8737 84 20.4375 84H79.5625C83.1264 84 86.5442 82.5294 89.0642 79.9117C91.5843 77.294 93 73.7436 93 70.0417V30.9583C93 27.2564 91.5843 23.706 89.0642 21.0883C86.5442 18.4706 83.1264 17 79.5625 17H20.4375ZM12.375 30.9583C12.375 28.7371 13.2244 26.6069 14.7365 25.0363C16.2485 23.4657 18.2992 22.5833 20.4375 22.5833H79.5625C81.7008 22.5833 83.7515 23.4657 85.2635 25.0363C86.7756 26.6069 87.625 28.7371 87.625 30.9583V70.0417C87.625 72.2629 86.7756 74.3931 85.2635 75.9637C83.7515 77.5343 81.7008 78.4167 79.5625 78.4167H20.4375C18.2992 78.4167 16.2485 77.5343 14.7365 75.9637C13.2244 74.3931 12.375 72.2629 12.375 70.0417V30.9583ZM20.4375 28.1667C19.7247 28.1667 19.0412 28.4608 18.5372 28.9843C18.0331 29.5079 17.75 30.2179 17.75 30.9583C17.75 31.6987 18.0331 32.4088 18.5372 32.9323C19.0412 33.4559 19.7247 33.75 20.4375 33.75H47.3125C48.0253 33.75 48.7088 33.4559 49.2129 32.9323C49.7169 32.4088 50 31.6987 50 30.9583C50 30.2179 49.7169 29.5079 49.2129 28.9843C48.7088 28.4608 48.0253 28.1667 47.3125 28.1667H20.4375ZM20.4375 39.3333C19.7247 39.3333 19.0412 39.6275 18.5372 40.151C18.0331 40.6745 17.75 41.3846 17.75 42.125C17.75 42.8654 18.0331 43.5755 18.5372 44.099C19.0412 44.6225 19.7247 44.9167 20.4375 44.9167H63.4375C64.1503 44.9167 64.8338 44.6225 65.3379 44.099C65.8419 43.5755 66.125 42.8654 66.125 42.125C66.125 41.3846 65.8419 40.6745 65.3379 40.151C64.8338 39.6275 64.1503 39.3333 63.4375 39.3333H20.4375ZM23.125 56.0833C21.6995 56.0833 20.3323 56.6716 19.3243 57.7187C18.3163 58.7657 17.75 60.1859 17.75 61.6667V67.25C17.75 68.7308 18.3163 70.1509 19.3243 71.198C20.3323 72.2451 21.6995 72.8333 23.125 72.8333H44.625C46.0505 72.8333 47.4177 72.2451 48.4257 71.198C49.4337 70.1509 50 68.7308 50 67.25V61.6667C50 60.1859 49.4337 58.7657 48.4257 57.7187C47.4177 56.6716 46.0505 56.0833 44.625 56.0833H23.125Z" fill="#3B82F6"/>
</svg>
