<svg width="300" height="300" viewBox="0 0 300 300" fill="none" xmlns="http://www.w3.org/2000/svg">
<path fill-rule="evenodd" clip-rule="evenodd" d="M77.4033 20.4038C84.0604 13.7465 93.0894 10.0065 102.504 10.0065H131.002H168.999H197.496C206.911 10.0065 215.94 13.7465 222.597 20.4038C229.254 27.0611 232.994 36.0903 232.994 45.5051V254.495C232.994 263.91 229.254 272.939 222.597 279.596C215.94 286.253 206.911 289.994 197.496 289.994H102.504C93.0894 289.994 84.0604 286.253 77.4033 279.596C70.7462 272.939 67.0063 263.91 67.0063 254.495V45.5051C67.0063 36.0903 70.7462 27.0611 77.4033 20.4038ZM102.504 24.0065C96.8026 24.0065 91.3346 26.2714 87.303 30.3032C83.2713 34.3349 81.0063 39.8032 81.0063 45.5051V254.495C81.0063 260.197 83.2713 265.665 87.303 269.697C91.3346 273.729 96.8026 275.994 102.504 275.994H197.496C203.198 275.994 208.666 273.729 212.697 269.697C216.729 265.665 218.994 260.197 218.994 254.495V45.5051C218.994 39.8032 216.729 34.3349 212.697 30.3032C208.666 26.2714 203.198 24.0065 197.496 24.0065H168.999H131.002H102.504ZM124.002 254.495C124.002 250.629 127.136 247.495 131.002 247.495H168.999C172.865 247.495 175.999 250.629 175.999 254.495C175.999 258.361 172.865 261.495 168.999 261.495H131.002C127.136 261.495 124.002 258.361 124.002 254.495ZM94.8262 55.9775C94.8262 51.5593 98.4079 47.9776 102.826 47.9776H196.479C200.898 47.9776 204.479 51.5593 204.479 55.9776V88.5597C204.479 92.978 200.898 96.5597 196.479 96.5597L102.826 96.5597C98.4079 96.5597 94.8262 92.978 94.8262 88.5597V55.9775ZM102.826 152.082C98.4079 152.082 94.8262 155.664 94.8262 160.082V162.127C94.8262 166.545 98.4079 170.127 102.826 170.127H181.211C185.629 170.127 189.211 166.545 189.211 162.127V160.082C189.211 155.664 185.629 152.082 181.211 152.082H102.826ZM97.6025 192.007C97.6025 187.589 101.184 184.007 105.603 184.007H150.675C155.093 184.007 158.675 187.589 158.675 192.007V194.052C158.675 198.471 155.093 202.052 150.675 202.052H105.603C101.184 202.052 97.6025 198.471 97.6025 194.052V192.007ZM98.8262 110.44C96.617 110.44 94.8262 112.231 94.8262 114.44V126.44C94.8262 128.649 96.617 130.44 98.8262 130.44H110.826C113.035 130.44 114.826 128.649 114.826 126.44V114.44C114.826 112.231 113.035 110.44 110.826 110.44H98.8262ZM124.326 114.44C124.326 112.231 126.117 110.44 128.326 110.44H140.326C142.535 110.44 144.326 112.231 144.326 114.44V126.44C144.326 128.649 142.535 130.44 140.326 130.44H128.326C126.117 130.44 124.326 128.649 124.326 126.44V114.44ZM157.826 110.44C155.617 110.44 153.826 112.231 153.826 114.44V126.44C153.826 128.649 155.617 130.44 157.826 130.44H169.826C172.035 130.44 173.826 128.649 173.826 126.44V114.44C173.826 112.231 172.035 110.44 169.826 110.44H157.826Z" fill="#60A5FA"/>
</svg>
