<svg width="100" height="100" viewBox="0 0 100 100" fill="none" xmlns="http://www.w3.org/2000/svg">
<path d="M79.3748 20.4583C75.5548 16.5997 71.0048 13.5403 65.99 11.4586C60.9752 9.37682 55.5962 8.31443 50.1665 8.33335C27.4165 8.33335 8.87484 26.875 8.87484 49.625C8.87484 56.9167 10.7915 64 14.3748 70.25L8.5415 91.6667L30.4165 85.9167C36.4582 89.2083 43.2498 90.9583 50.1665 90.9583C72.9165 90.9583 91.4582 72.4167 91.4582 49.6667C91.4582 38.625 87.1665 28.25 79.3748 20.4583ZM50.1665 83.9583C43.9998 83.9583 37.9582 82.2917 32.6665 79.1667L31.4165 78.4167L18.4165 81.8333L21.8748 69.1667L21.0415 67.875C17.6154 62.404 15.7963 56.0802 15.7915 49.625C15.7915 30.7083 31.2082 15.2917 50.1248 15.2917C59.2915 15.2917 67.9165 18.875 74.3748 25.375C77.5727 28.5582 80.1069 32.3444 81.8306 36.5143C83.5544 40.6841 84.4333 45.1546 84.4165 49.6667C84.4998 68.5833 69.0832 83.9583 50.1665 83.9583ZM68.9998 58.2917C67.9582 57.7917 62.8748 55.2917 61.9582 54.9167C60.9998 54.5833 60.3332 54.4167 59.6248 55.4167C58.9165 56.4583 56.9582 58.7917 56.3748 59.4583C55.7915 60.1667 55.1665 60.25 54.1248 59.7083C53.0832 59.2083 49.7498 58.0833 45.8332 54.5833C42.7498 51.8333 40.7082 48.4583 40.0832 47.4167C39.4998 46.375 39.9998 45.8333 40.5415 45.2917C40.9998 44.8333 41.5832 44.0833 42.0832 43.5C42.5832 42.9167 42.7915 42.4583 43.1248 41.7917C43.4582 41.0833 43.2915 40.5 43.0415 40C42.7915 39.5 40.7082 34.4167 39.8748 32.3333C39.0415 30.3333 38.1665 30.5833 37.5415 30.5417H35.5415C34.8332 30.5417 33.7498 30.7917 32.7915 31.8333C31.8748 32.875 29.2082 35.375 29.2082 40.4583C29.2082 45.5417 32.9165 50.4583 33.4165 51.125C33.9165 51.8333 40.7082 62.25 51.0415 66.7083C53.4998 67.7917 55.4165 68.4167 56.9165 68.875C59.3748 69.6667 61.6248 69.5417 63.4165 69.2917C65.4165 69 69.5415 66.7917 70.3748 64.375C71.2498 61.9583 71.2498 59.9167 70.9582 59.4583C70.6665 59 70.0415 58.7917 68.9998 58.2917Z" fill="#60A5FA"/>
</svg>
