<svg width="100" height="100" viewBox="0 0 100 100" fill="none" xmlns="http://www.w3.org/2000/svg">
<path d="M79.3743 20.4583C75.5543 16.5996 71.0043 13.5402 65.9895 11.4585C60.9747 9.37673 55.5957 8.31434 50.166 8.33326C27.416 8.33326 8.87435 26.8749 8.87435 49.6249C8.87435 56.9166 10.791 63.9999 14.3743 70.2499L8.54102 91.6666L30.416 85.9166C36.4577 89.2083 43.2493 90.9583 50.166 90.9583C72.916 90.9583 91.4577 72.4166 91.4577 49.6666C91.4577 38.6249 87.166 28.2499 79.3743 20.4583ZM50.166 83.9582C43.9993 83.9582 37.9577 82.2916 32.666 79.1666L31.416 78.4166L18.416 81.8332L21.8743 69.1666L21.041 67.8749C17.615 62.404 15.7958 56.0801 15.791 49.6249C15.791 30.7083 31.2077 15.2916 50.1243 15.2916C59.291 15.2916 67.916 18.8749 74.3743 25.3749C77.5722 28.5581 80.1064 32.3443 81.8302 36.5142C83.5539 40.684 84.4328 45.1545 84.416 49.6666C84.4994 68.5833 69.0827 83.9582 50.166 83.9582ZM68.9993 58.2916C67.9577 57.7916 62.8743 55.2916 61.9577 54.9166C60.9993 54.5833 60.3327 54.4166 59.6243 55.4166C58.916 56.4583 56.9577 58.7916 56.3743 59.4583C55.791 60.1666 55.166 60.2499 54.1243 59.7083C53.0827 59.2083 49.7493 58.0833 45.8327 54.5833C42.7493 51.8333 40.7077 48.4583 40.0827 47.4166C39.4993 46.3749 39.9993 45.8333 40.541 45.2916C40.9993 44.8333 41.5827 44.0833 42.0827 43.4999C42.5827 42.9166 42.791 42.4583 43.1243 41.7916C43.4577 41.0833 43.291 40.4999 43.041 39.9999C42.791 39.4999 40.7077 34.4166 39.8743 32.3333C39.041 30.3333 38.166 30.5833 37.541 30.5416H35.541C34.8327 30.5416 33.7493 30.7916 32.791 31.8333C31.8743 32.8749 29.2077 35.3749 29.2077 40.4583C29.2077 45.5416 32.916 50.4583 33.416 51.1249C33.916 51.8333 40.7077 62.2499 51.041 66.7083C53.4993 67.7916 55.416 68.4166 56.916 68.8749C59.3743 69.6666 61.6243 69.5416 63.416 69.2916C65.416 68.9999 69.541 66.7916 70.3743 64.3749C71.2493 61.9583 71.2493 59.9166 70.9577 59.4583C70.666 58.9999 70.041 58.7916 68.9993 58.2916Z" fill="white"/>
</svg>
