<svg width="100" height="100" viewBox="0 0 100 100" fill="none" xmlns="http://www.w3.org/2000/svg">
<path d="M50.0002 8.33334C27.0252 8.33334 8.3335 27.025 8.3335 50C8.3335 72.975 27.0252 91.6667 50.0002 91.6667C72.9752 91.6667 91.6668 72.975 91.6668 50C91.6668 27.025 72.9752 8.33334 50.0002 8.33334ZM83.046 45.8333H71.5293C71.0153 36.7135 68.4639 27.8249 64.0627 19.8208C69.1635 22.2044 73.5787 25.8392 76.8978 30.3871C80.2168 34.9351 82.3317 40.2486 83.046 45.8333ZM52.2085 16.7792C56.521 22.4625 62.321 32.5292 63.1543 45.8333H37.6252C38.2043 35.0167 41.7668 24.8833 47.8377 16.775C48.5543 16.7333 49.271 16.6667 50.0002 16.6667C50.746 16.6667 51.4752 16.7333 52.2085 16.7792ZM36.2002 19.6958C32.1002 27.575 29.7335 36.5083 29.2918 45.8333H16.9543C17.6742 40.1993 19.8195 34.8421 23.1872 30.2684C26.555 25.6947 31.0338 22.0558 36.2002 19.6958ZM16.9543 54.1667H29.346C29.9127 64.0792 32.1168 72.825 35.8293 80.125C30.7551 77.7331 26.3657 74.1007 23.0667 69.5637C19.7676 65.0266 17.6654 59.7311 16.9543 54.1667ZM47.7085 83.2208C41.871 76.1458 38.4252 66.2333 37.671 54.1667H63.1418C62.2752 65.7208 58.4877 75.8167 52.296 83.2167C51.5377 83.2667 50.7793 83.3333 50.0002 83.3333C49.2252 83.3333 48.471 83.2667 47.7085 83.2208ZM64.421 80.0042C68.4002 72.5292 70.8293 63.75 71.4668 54.1667H83.0418C82.3386 59.6845 80.2667 64.9388 77.0144 69.4515C73.7622 73.9641 69.4331 77.5917 64.421 80.0042Z" fill="#3B82F6"/>
</svg>
