<svg width="100" height="100" viewBox="0 0 100 100" fill="none" xmlns="http://www.w3.org/2000/svg">
<path d="M50.0007 8.3335C27.0257 8.3335 8.33398 27.0252 8.33398 50.0002C8.33398 72.9752 27.0257 91.6668 50.0007 91.6668C72.9757 91.6668 91.6673 72.9752 91.6673 50.0002C91.6673 27.0252 72.9757 8.3335 50.0007 8.3335ZM83.0465 45.8335H71.5298C71.0158 36.7137 68.4644 27.825 64.0632 19.821C69.164 22.2045 73.5792 25.8393 76.8982 30.3873C80.2173 34.9353 82.3322 40.2487 83.0465 45.8335ZM52.209 16.7793C56.5215 22.4627 62.3215 32.5293 63.1548 45.8335H37.6257C38.2048 35.0168 41.7673 24.8835 47.8382 16.7752C48.5548 16.7335 49.2715 16.6668 50.0007 16.6668C50.7465 16.6668 51.4757 16.7335 52.209 16.7793ZM36.2007 19.696C32.1007 27.5752 29.734 36.5085 29.2923 45.8335H16.9548C17.6747 40.1995 19.82 34.8423 23.1877 30.2686C26.5554 25.6949 31.0343 22.0559 36.2007 19.696ZM16.9548 54.1668H29.3465C29.9132 64.0793 32.1173 72.8252 35.8298 80.1252C30.7556 77.7332 26.3662 74.1009 23.0671 69.5638C19.7681 65.0267 17.6659 59.7313 16.9548 54.1668ZM47.709 83.221C41.8715 76.146 38.4257 66.2335 37.6715 54.1668H63.1423C62.2757 65.721 58.4882 75.8168 52.2965 83.2168C51.5382 83.2668 50.7798 83.3335 50.0007 83.3335C49.2257 83.3335 48.4715 83.2668 47.709 83.221ZM64.4215 80.0043C68.4007 72.5293 70.8298 63.7502 71.4673 54.1668H83.0423C82.3391 59.6847 80.2671 64.939 77.0149 69.4516C73.7627 73.9643 69.4336 77.5919 64.4215 80.0043Z" fill="#EA5819"/>
</svg>
