<svg width="300" height="300" viewBox="0 0 300 300" fill="none" xmlns="http://www.w3.org/2000/svg">
<path fill-rule="evenodd" clip-rule="evenodd" d="M44.4707 56.6471H255.53C264.496 56.6471 271.765 63.9159 271.765 72.8824V76.9412H28.2354V72.8824C28.2354 63.9158 35.5042 56.6471 44.4707 56.6471ZM28.2354 93.1765V227.118C28.2354 236.084 35.5042 243.353 44.4707 243.353H78.2963V93.1765H28.2354ZM255.53 265L94.5316 265H78.2963L44.4707 265C23.5489 265 6.58838 248.039 6.58838 227.118V72.8824C6.58838 51.9605 23.5489 35 44.4707 35H255.53C276.451 35 293.412 51.9605 293.412 72.8824V227.118C293.412 248.039 276.451 265 255.53 265ZM94.5316 93.1765V243.353H255.53C264.496 243.353 271.765 236.084 271.765 227.118V93.1765L94.5316 93.1765ZM38.3533 104C37.2488 104 36.3533 104.895 36.3533 106V109C36.3533 110.105 37.2488 111 38.3533 111H57.3533C58.4579 111 59.3533 110.105 59.3533 109V106C59.3533 104.895 58.4579 104 57.3533 104H38.3533ZM36.3533 121C36.3533 119.895 37.2488 119 38.3533 119H57.3533C58.4579 119 59.3533 119.895 59.3533 121V124C59.3533 125.105 58.4579 126 57.3533 126H38.3533C37.2488 126 36.3533 125.105 36.3533 124V121ZM38.3533 134C37.2488 134 36.3533 134.895 36.3533 136V139C36.3533 140.105 37.2488 141 38.3533 141H57.3533C58.4579 141 59.3533 140.105 59.3533 139V136C59.3533 134.895 58.4579 134 57.3533 134H38.3533ZM36.3533 151C36.3533 149.895 37.2488 149 38.3533 149H57.3533C58.4579 149 59.3533 149.895 59.3533 151V154C59.3533 155.105 58.4579 156 57.3533 156H38.3533C37.2488 156 36.3533 155.105 36.3533 154V151ZM114.823 104C109.593 104 105.352 108.24 105.352 113.471C105.352 118.701 109.593 122.941 114.823 122.941H163.529C168.759 122.941 172.999 118.701 172.999 113.471C172.999 108.24 168.759 104 163.529 104H114.823ZM105.352 143.235C105.352 138.005 109.593 133.765 114.823 133.765H225.764C230.995 133.765 235.235 138.005 235.235 143.235C235.235 148.466 230.995 152.706 225.764 152.706H114.823C109.593 152.706 105.352 148.466 105.352 143.235ZM116.176 171.647C110.198 171.647 105.352 176.493 105.352 182.471V204.118C105.352 210.095 110.198 214.941 116.176 214.941H208.176C214.154 214.941 218.999 210.095 218.999 204.118V182.471C218.999 176.493 214.154 171.647 208.176 171.647H116.176Z" fill="#60A5FA"/>
</svg>
