<svg width="100" height="100" viewBox="0 0 100 100" fill="none" xmlns="http://www.w3.org/2000/svg">
<path d="M83.334 16.6665H16.6673C12.084 16.6665 8.37565 20.4165 8.37565 24.9998L8.33398 74.9998C8.33398 79.5832 12.084 83.3332 16.6673 83.3332H83.334C87.9173 83.3332 91.6673 79.5832 91.6673 74.9998V24.9998C91.6673 20.4165 87.9173 16.6665 83.334 16.6665ZM16.6673 37.4998H60.4173V52.0832H16.6673V37.4998ZM16.6673 60.4165H60.4173V74.9998H20.834C18.5423 74.9998 16.6673 73.1248 16.6673 70.8332V60.4165ZM79.1673 74.9998H68.7507V37.4998H83.334V70.8332C83.334 73.1248 81.459 74.9998 79.1673 74.9998Z" fill="#1E3A8A"/>
</svg>
