<svg width="100" height="100" viewBox="0 0 100 100" fill="none" xmlns="http://www.w3.org/2000/svg">
<path d="M83.3335 16.6667H16.6668C12.0835 16.6667 8.37516 20.4167 8.37516 25L8.3335 75C8.3335 79.5833 12.0835 83.3333 16.6668 83.3333H83.3335C87.9168 83.3333 91.6668 79.5833 91.6668 75V25C91.6668 20.4167 87.9168 16.6667 83.3335 16.6667ZM16.6668 37.5H60.4168V52.0833H16.6668V37.5ZM16.6668 60.4167H60.4168V75H20.8335C18.5418 75 16.6668 73.125 16.6668 70.8333V60.4167ZM79.1668 75H68.7502V37.5H83.3335V70.8333C83.3335 73.125 81.4585 75 79.1668 75Z" fill="#3B82F6"/>
</svg>
