<svg width="300" height="300" viewBox="0 0 300 300" fill="none" xmlns="http://www.w3.org/2000/svg">
<path d="M150 10C122.311 10 95.2431 18.2109 72.2202 33.5942C49.1973 48.9776 31.2532 70.8426 20.6569 96.4243C10.0607 122.006 7.28819 150.155 12.6901 177.313C18.0921 204.47 31.4258 229.416 51.0051 248.995C70.5844 268.574 95.5301 281.908 122.687 287.31C149.845 292.712 177.994 289.939 203.576 279.343C229.157 268.747 251.022 250.803 266.406 227.78C281.789 204.757 290 177.689 290 150C289.961 112.882 275.198 77.2949 248.952 51.0483C222.705 24.8017 187.118 10.0392 150 10ZM114.502 203.846H185.498C178.269 228.535 166.154 250.786 150 268.313C133.846 250.786 121.731 228.535 114.502 203.846ZM109.615 182.308C106.044 160.917 106.044 139.083 109.615 117.692H190.385C193.956 139.083 193.956 160.917 190.385 182.308H109.615ZM31.5385 150C31.5291 139.075 33.0378 128.202 36.0212 117.692H87.7943C84.5815 139.111 84.5815 160.889 87.7943 182.308H36.0212C33.0378 171.798 31.5291 160.925 31.5385 150ZM185.498 96.1538H114.502C121.731 71.4654 133.846 49.2135 150 31.6865C166.154 49.2135 178.269 71.4654 185.498 96.1538ZM212.206 117.692H263.979C269.956 138.816 269.956 161.184 263.979 182.308H212.206C215.419 160.889 215.419 139.111 212.206 117.692ZM255.498 96.1538H207.804C202.308 74.528 193.078 54.0279 180.531 35.5769C196.561 39.8849 211.513 47.5001 224.424 57.9329C237.335 68.3657 247.92 81.3851 255.498 96.1538ZM119.469 35.5769C106.922 54.0279 97.6921 74.528 92.1962 96.1538H44.502C52.0798 81.3851 62.6647 68.3657 75.5758 57.9329C88.487 47.5001 103.439 39.8849 119.469 35.5769ZM44.502 203.846H92.1962C97.6921 225.472 106.922 245.972 119.469 264.423C103.439 260.115 88.487 252.5 75.5758 242.067C62.6647 231.634 52.0798 218.615 44.502 203.846ZM180.531 264.423C193.078 245.972 202.308 225.472 207.804 203.846H255.498C247.92 218.615 237.335 231.634 224.424 242.067C211.513 252.5 196.561 260.115 180.531 264.423Z" fill="#60A5FA"/>
</svg>
