<svg width="100" height="100" viewBox="0 0 100 100" fill="none" xmlns="http://www.w3.org/2000/svg">
<path d="M70.8333 41.6667C70.8333 41.6667 65.1 56.6917 64.5833 58.3333C64.3917 56.6667 58.3333 25 58.3333 25C47.3875 25 42.6417 31.5083 39.5833 39.5833C39.5833 39.5833 31.9042 58.7208 31.25 60.4167C31.1958 58.8833 29.1667 41.6667 29.1667 41.6667C28.5417 31.7875 19.9542 25.0833 12.5 25.0833L20.8333 79.1667C32.2708 79.1125 40.5 72.6583 43.75 64.5833C43.75 64.5833 49.75 46.6667 50 45.8333C50.0542 46.5833 54.1667 79.1667 54.1667 79.1667C65.6583 79.1667 73.725 72.3917 77.0833 64.5833L91.6667 25C80.2833 25 73.9458 33.5625 70.8333 41.6667Z" stroke="#172554" stroke-width="5" stroke-linecap="round" stroke-linejoin="round"/>
</svg>
