<svg width="100" height="100" viewBox="0 0 100 100" fill="none" xmlns="http://www.w3.org/2000/svg">
<path d="M13.846 50C13.846 64.325 22.1793 76.6667 34.2293 82.5334L16.9877 35.2875C14.9167 39.916 13.8461 44.9294 13.846 50ZM50.0002 86.1542C54.0937 86.149 58.1572 85.456 62.021 84.1042L61.7627 83.6209L50.6377 53.175L39.8043 84.6792C43.0127 85.6375 46.4418 86.1542 50.0002 86.1542ZM54.9668 33.0417L68.046 71.9167L71.6668 59.8667C73.2085 54.8667 74.3918 51.2792 74.3918 48.1709C74.3918 43.6834 72.7877 40.6042 71.4418 38.2334C69.5835 35.2209 67.8835 32.6917 67.8835 29.7375C67.8835 26.4042 70.3835 23.3292 73.9752 23.3292H74.421C67.7593 17.2154 59.0421 13.8303 50.0002 13.8459C44.0124 13.8453 38.1184 15.3331 32.8483 18.1754C27.5782 21.0178 23.0973 25.1255 19.8085 30.1292L22.1168 30.1917C25.896 30.1917 31.7293 29.7125 31.7293 29.7125C33.7168 29.6167 33.9418 32.4667 31.9877 32.6917C31.9877 32.6917 30.0293 32.95 27.821 33.0459L41.0293 72.2125L48.946 48.4959L43.3002 33.0459C42.0376 32.976 40.7773 32.869 39.521 32.725C37.5627 32.6 37.7877 29.6167 39.7418 29.7125C39.7418 29.7125 45.7043 30.1917 49.2627 30.1917C53.046 30.1917 58.8793 29.7125 58.8793 29.7125C60.8335 29.6167 61.0877 32.4667 59.1335 32.6917C59.1335 32.6917 57.1793 32.9167 54.9668 33.0459M68.1752 81.25C76.3217 76.5147 82.2974 68.7856 84.8291 59.7093C87.3609 50.6329 86.2486 40.9267 81.7293 32.6584C82.3022 38.3356 81.4426 44.0658 79.2293 49.325L68.1752 81.25ZM50.0002 91.6667C38.9495 91.6667 28.3514 87.2768 20.5374 79.4628C12.7234 71.6488 8.3335 61.0507 8.3335 50C8.3335 38.9494 12.7234 28.3513 20.5374 20.5373C28.3514 12.7232 38.9495 8.33337 50.0002 8.33337C61.0509 8.33337 71.6489 12.7232 79.463 20.5373C87.277 28.3513 91.6668 38.9494 91.6668 50C91.6668 61.0507 87.277 71.6488 79.463 79.4628C71.6489 87.2768 61.0509 91.6667 50.0002 91.6667Z" fill="#172554"/>
</svg>
